<svg width="487" height="164" viewBox="0 0 487 164" fill="none" xmlns="http://www.w3.org/2000/svg">
<g clip-path="url(#clip0_1_574)">
<path d="M161.225 121.357L156.436 116.568L157.698 115.306L164.643 122.25L157.698 129.195L156.436 127.932L161.225 123.143H150.357V121.357H161.225Z" fill="black"/>
</g>
<path d="M38.6162 124.058L42.3867 113.203H44.2236L39.4863 126H38.1768L38.6162 124.058ZM35.0918 113.203L38.8271 124.058L39.293 126H37.9834L33.2549 113.203H35.0918ZM47.4668 116.49V126H45.832V116.49H47.4668ZM45.709 113.968C45.709 113.704 45.7881 113.481 45.9463 113.3C46.1104 113.118 46.3506 113.027 46.667 113.027C46.9775 113.027 47.2148 113.118 47.3789 113.3C47.5488 113.481 47.6338 113.704 47.6338 113.968C47.6338 114.22 47.5488 114.437 47.3789 114.618C47.2148 114.794 46.9775 114.882 46.667 114.882C46.3506 114.882 46.1104 114.794 45.9463 114.618C45.7881 114.437 45.709 114.22 45.709 113.968ZM54.0234 126.176C53.3613 126.176 52.7607 126.064 52.2217 125.842C51.6885 125.613 51.2285 125.294 50.8418 124.884C50.4609 124.474 50.168 123.987 49.9629 123.425C49.7578 122.862 49.6553 122.247 49.6553 121.579V121.21C49.6553 120.437 49.7695 119.748 49.998 119.145C50.2266 118.535 50.5371 118.02 50.9297 117.598C51.3223 117.176 51.7676 116.856 52.2656 116.64C52.7637 116.423 53.2793 116.314 53.8125 116.314C54.4922 116.314 55.0781 116.432 55.5703 116.666C56.0684 116.9 56.4756 117.229 56.792 117.65C57.1084 118.066 57.3428 118.559 57.4951 119.127C57.6475 119.689 57.7236 120.305 57.7236 120.973V121.702H50.6221V120.375H56.0977V120.252C56.0742 119.83 55.9863 119.42 55.834 119.021C55.6875 118.623 55.4531 118.295 55.1309 118.037C54.8086 117.779 54.3691 117.65 53.8125 117.65C53.4434 117.65 53.1035 117.729 52.793 117.888C52.4824 118.04 52.2158 118.269 51.9932 118.573C51.7705 118.878 51.5977 119.25 51.4746 119.689C51.3516 120.129 51.29 120.636 51.29 121.21V121.579C51.29 122.03 51.3516 122.455 51.4746 122.854C51.6035 123.246 51.7881 123.592 52.0283 123.891C52.2744 124.189 52.5703 124.424 52.916 124.594C53.2676 124.764 53.666 124.849 54.1113 124.849C54.6855 124.849 55.1719 124.731 55.5703 124.497C55.9688 124.263 56.3174 123.949 56.6162 123.557L57.6006 124.339C57.3955 124.649 57.1348 124.945 56.8184 125.227C56.502 125.508 56.1123 125.736 55.6494 125.912C55.1924 126.088 54.6504 126.176 54.0234 126.176ZM62.0303 124.312L64.4736 116.49H65.5459L65.335 118.046L62.8477 126H61.8018L62.0303 124.312ZM60.3867 116.49L62.4697 124.4L62.6191 126H61.5205L58.7607 116.49H60.3867ZM67.8838 124.339L69.8701 116.49H71.4873L68.7275 126H67.6377L67.8838 124.339ZM65.7832 116.49L68.1738 124.181L68.4463 126H67.4092L64.8516 118.028L64.6406 116.49H65.7832ZM82.5879 120.981H79.1689V119.602H82.5879C83.25 119.602 83.7861 119.496 84.1963 119.285C84.6064 119.074 84.9053 118.781 85.0928 118.406C85.2861 118.031 85.3828 117.604 85.3828 117.123C85.3828 116.684 85.2861 116.271 85.0928 115.884C84.9053 115.497 84.6064 115.187 84.1963 114.952C83.7861 114.712 83.25 114.592 82.5879 114.592H79.5645V126H77.8682V113.203H82.5879C83.5547 113.203 84.3721 113.37 85.04 113.704C85.708 114.038 86.2148 114.501 86.5605 115.093C86.9062 115.679 87.0791 116.35 87.0791 117.105C87.0791 117.926 86.9062 118.626 86.5605 119.206C86.2148 119.786 85.708 120.229 85.04 120.533C84.3721 120.832 83.5547 120.981 82.5879 120.981ZM90.6035 117.984V126H88.9775V116.49H90.5596L90.6035 117.984ZM93.5742 116.438L93.5654 117.949C93.4307 117.92 93.3018 117.902 93.1787 117.896C93.0615 117.885 92.9268 117.879 92.7744 117.879C92.3994 117.879 92.0684 117.938 91.7812 118.055C91.4941 118.172 91.251 118.336 91.0518 118.547C90.8525 118.758 90.6943 119.01 90.5771 119.303C90.4658 119.59 90.3926 119.906 90.3574 120.252L89.9004 120.516C89.9004 119.941 89.9561 119.402 90.0674 118.898C90.1846 118.395 90.3633 117.949 90.6035 117.562C90.8438 117.17 91.1484 116.865 91.5176 116.648C91.8926 116.426 92.3379 116.314 92.8535 116.314C92.9707 116.314 93.1055 116.329 93.2578 116.358C93.4102 116.382 93.5156 116.408 93.5742 116.438ZM94.4707 121.351V121.148C94.4707 120.463 94.5703 119.827 94.7695 119.241C94.9688 118.649 95.2559 118.137 95.6309 117.703C96.0059 117.264 96.46 116.924 96.9932 116.684C97.5264 116.438 98.124 116.314 98.7861 116.314C99.4541 116.314 100.055 116.438 100.588 116.684C101.127 116.924 101.584 117.264 101.959 117.703C102.34 118.137 102.63 118.649 102.829 119.241C103.028 119.827 103.128 120.463 103.128 121.148V121.351C103.128 122.036 103.028 122.672 102.829 123.258C102.63 123.844 102.34 124.356 101.959 124.796C101.584 125.229 101.13 125.569 100.597 125.815C100.069 126.056 99.4717 126.176 98.8037 126.176C98.1357 126.176 97.5352 126.056 97.002 125.815C96.4688 125.569 96.0117 125.229 95.6309 124.796C95.2559 124.356 94.9688 123.844 94.7695 123.258C94.5703 122.672 94.4707 122.036 94.4707 121.351ZM96.0967 121.148V121.351C96.0967 121.825 96.1523 122.273 96.2637 122.695C96.375 123.111 96.542 123.48 96.7646 123.803C96.9932 124.125 97.2773 124.38 97.6172 124.567C97.957 124.749 98.3525 124.84 98.8037 124.84C99.249 124.84 99.6387 124.749 99.9727 124.567C100.312 124.38 100.594 124.125 100.816 123.803C101.039 123.48 101.206 123.111 101.317 122.695C101.435 122.273 101.493 121.825 101.493 121.351V121.148C101.493 120.68 101.435 120.237 101.317 119.821C101.206 119.399 101.036 119.027 100.808 118.705C100.585 118.377 100.304 118.119 99.9639 117.932C99.6299 117.744 99.2373 117.65 98.7861 117.65C98.3408 117.65 97.9482 117.744 97.6084 117.932C97.2744 118.119 96.9932 118.377 96.7646 118.705C96.542 119.027 96.375 119.399 96.2637 119.821C96.1523 120.237 96.0967 120.68 96.0967 121.148ZM105.211 116.49H106.846V127.134C106.846 127.714 106.752 128.206 106.564 128.61C106.383 129.015 106.107 129.319 105.738 129.524C105.375 129.735 104.915 129.841 104.358 129.841C104.212 129.841 104.042 129.826 103.849 129.797C103.649 129.768 103.482 129.732 103.348 129.691L103.356 128.382C103.468 128.405 103.594 128.423 103.734 128.435C103.875 128.452 103.998 128.461 104.104 128.461C104.344 128.461 104.546 128.417 104.71 128.329C104.874 128.241 104.997 128.101 105.079 127.907C105.167 127.714 105.211 127.456 105.211 127.134V116.49ZM105.044 113.968C105.044 113.704 105.126 113.481 105.29 113.3C105.454 113.118 105.691 113.027 106.002 113.027C106.318 113.027 106.559 113.118 106.723 113.3C106.887 113.481 106.969 113.704 106.969 113.968C106.969 114.22 106.887 114.437 106.723 114.618C106.559 114.794 106.318 114.882 106.002 114.882C105.691 114.882 105.454 114.794 105.29 114.618C105.126 114.437 105.044 114.22 105.044 113.968ZM113.42 126.176C112.758 126.176 112.157 126.064 111.618 125.842C111.085 125.613 110.625 125.294 110.238 124.884C109.857 124.474 109.564 123.987 109.359 123.425C109.154 122.862 109.052 122.247 109.052 121.579V121.21C109.052 120.437 109.166 119.748 109.395 119.145C109.623 118.535 109.934 118.02 110.326 117.598C110.719 117.176 111.164 116.856 111.662 116.64C112.16 116.423 112.676 116.314 113.209 116.314C113.889 116.314 114.475 116.432 114.967 116.666C115.465 116.9 115.872 117.229 116.188 117.65C116.505 118.066 116.739 118.559 116.892 119.127C117.044 119.689 117.12 120.305 117.12 120.973V121.702H110.019V120.375H115.494V120.252C115.471 119.83 115.383 119.42 115.23 119.021C115.084 118.623 114.85 118.295 114.527 118.037C114.205 117.779 113.766 117.65 113.209 117.65C112.84 117.65 112.5 117.729 112.189 117.888C111.879 118.04 111.612 118.269 111.39 118.573C111.167 118.878 110.994 119.25 110.871 119.689C110.748 120.129 110.687 120.636 110.687 121.21V121.579C110.687 122.03 110.748 122.455 110.871 122.854C111 123.246 111.185 123.592 111.425 123.891C111.671 124.189 111.967 124.424 112.312 124.594C112.664 124.764 113.062 124.849 113.508 124.849C114.082 124.849 114.568 124.731 114.967 124.497C115.365 124.263 115.714 123.949 116.013 123.557L116.997 124.339C116.792 124.649 116.531 124.945 116.215 125.227C115.898 125.508 115.509 125.736 115.046 125.912C114.589 126.088 114.047 126.176 113.42 126.176ZM122.824 124.84C123.211 124.84 123.568 124.761 123.896 124.603C124.225 124.444 124.494 124.228 124.705 123.952C124.916 123.671 125.036 123.352 125.065 122.994H126.612C126.583 123.557 126.393 124.081 126.041 124.567C125.695 125.048 125.241 125.438 124.679 125.736C124.116 126.029 123.498 126.176 122.824 126.176C122.109 126.176 121.485 126.05 120.952 125.798C120.425 125.546 119.985 125.2 119.634 124.761C119.288 124.321 119.027 123.817 118.852 123.249C118.682 122.675 118.597 122.068 118.597 121.43V121.061C118.597 120.422 118.682 119.818 118.852 119.25C119.027 118.676 119.288 118.169 119.634 117.729C119.985 117.29 120.425 116.944 120.952 116.692C121.485 116.44 122.109 116.314 122.824 116.314C123.568 116.314 124.219 116.467 124.775 116.771C125.332 117.07 125.769 117.48 126.085 118.002C126.407 118.518 126.583 119.104 126.612 119.76H125.065C125.036 119.367 124.925 119.013 124.731 118.696C124.544 118.38 124.286 118.128 123.958 117.94C123.636 117.747 123.258 117.65 122.824 117.65C122.326 117.65 121.907 117.75 121.567 117.949C121.233 118.143 120.967 118.406 120.768 118.74C120.574 119.068 120.434 119.435 120.346 119.839C120.264 120.237 120.223 120.645 120.223 121.061V121.43C120.223 121.846 120.264 122.256 120.346 122.66C120.428 123.064 120.565 123.431 120.759 123.759C120.958 124.087 121.225 124.351 121.559 124.55C121.898 124.743 122.32 124.84 122.824 124.84ZM132.422 116.49V117.738H127.28V116.49H132.422ZM129.021 114.179H130.646V123.645C130.646 123.967 130.696 124.21 130.796 124.374C130.896 124.538 131.024 124.646 131.183 124.699C131.341 124.752 131.511 124.778 131.692 124.778C131.827 124.778 131.968 124.767 132.114 124.743C132.267 124.714 132.381 124.69 132.457 124.673L132.466 126C132.337 126.041 132.167 126.079 131.956 126.114C131.751 126.155 131.502 126.176 131.209 126.176C130.811 126.176 130.444 126.097 130.11 125.938C129.776 125.78 129.51 125.517 129.311 125.147C129.117 124.772 129.021 124.269 129.021 123.636V114.179Z" fill="black"/>
<path d="M37.7852 41.6318H35.2285L35.2148 40.2236H37.3613C37.7396 40.2236 38.0495 40.1758 38.291 40.0801C38.5326 39.9798 38.7126 39.8363 38.8311 39.6494C38.9541 39.458 39.0156 39.2256 39.0156 38.9521C39.0156 38.6423 38.9564 38.3916 38.8379 38.2002C38.724 38.0088 38.5439 37.8698 38.2979 37.7832C38.0563 37.6966 37.7441 37.6533 37.3613 37.6533H35.9395V46H33.8887V36.0469H37.3613C37.9401 36.0469 38.4574 36.1016 38.9131 36.2109C39.3734 36.3203 39.763 36.4867 40.082 36.71C40.401 36.9333 40.6449 37.2158 40.8135 37.5576C40.9821 37.8949 41.0664 38.2959 41.0664 38.7607C41.0664 39.1709 40.973 39.5492 40.7861 39.8955C40.6038 40.2419 40.3145 40.5244 39.918 40.7432C39.526 40.9619 39.0133 41.0827 38.3799 41.1055L37.7852 41.6318ZM37.6963 46H34.668L35.4678 44.4004H37.6963C38.0563 44.4004 38.3503 44.3434 38.5781 44.2295C38.806 44.111 38.9746 43.9515 39.084 43.751C39.1934 43.5505 39.248 43.3203 39.248 43.0605C39.248 42.7689 39.1979 42.516 39.0977 42.3018C39.002 42.0876 38.847 41.9235 38.6328 41.8096C38.4186 41.6911 38.1361 41.6318 37.7852 41.6318H35.8096L35.8232 40.2236H38.2842L38.7559 40.7773C39.362 40.7682 39.8496 40.8753 40.2188 41.0986C40.5924 41.3174 40.8636 41.6022 41.0322 41.9531C41.2054 42.304 41.292 42.68 41.292 43.0811C41.292 43.7191 41.153 44.2568 40.875 44.6943C40.597 45.1273 40.1891 45.4531 39.6514 45.6719C39.1182 45.8906 38.4665 46 37.6963 46ZM46.8301 36.0469H50.542C51.3031 36.0469 51.957 36.1608 52.5039 36.3887C53.0553 36.6165 53.4792 36.9538 53.7754 37.4004C54.0716 37.847 54.2197 38.3962 54.2197 39.0479C54.2197 39.5811 54.1286 40.0391 53.9463 40.4219C53.7686 40.8001 53.5156 41.1169 53.1875 41.3721C52.8639 41.6227 52.4834 41.8232 52.0459 41.9736L51.3965 42.3154H48.1699L48.1562 40.7158H50.5557C50.9157 40.7158 51.2142 40.652 51.4512 40.5244C51.6882 40.3968 51.8659 40.2191 51.9844 39.9912C52.1074 39.7633 52.1689 39.499 52.1689 39.1982C52.1689 38.8792 52.1097 38.6035 51.9912 38.3711C51.8727 38.1387 51.6927 37.9609 51.4512 37.8379C51.2096 37.7148 50.9066 37.6533 50.542 37.6533H48.8809V46H46.8301V36.0469ZM52.3945 46L50.125 41.5635L52.292 41.5498L54.5889 45.9043V46H52.3945ZM63.8457 37.749L61.1387 46H58.958L62.6562 36.0469H64.0439L63.8457 37.749ZM66.0947 46L63.3809 37.749L63.1621 36.0469H64.5635L68.2822 46H66.0947ZM65.9717 42.2949V43.9014H60.7148V42.2949H65.9717ZM81.3057 36.0469V46H79.2549L75.2559 39.3281V46H73.2051V36.0469H75.2559L79.2617 42.7256V36.0469H81.3057ZM90.1455 46H87.9785L87.9922 44.4004H90.1455C90.6833 44.4004 91.1367 44.2796 91.5059 44.0381C91.875 43.792 92.153 43.4342 92.3398 42.9648C92.5312 42.4954 92.627 41.9281 92.627 41.2627V40.7773C92.627 40.2669 92.5723 39.818 92.4629 39.4307C92.3581 39.0433 92.2008 38.7174 91.9912 38.4531C91.7816 38.1888 91.5241 37.9906 91.2188 37.8584C90.9134 37.7217 90.5625 37.6533 90.166 37.6533H87.9375V36.0469H90.166C90.8314 36.0469 91.4398 36.1608 91.9912 36.3887C92.5472 36.612 93.028 36.9333 93.4336 37.3525C93.8392 37.7718 94.1514 38.2731 94.3701 38.8564C94.5934 39.4352 94.7051 40.0801 94.7051 40.791V41.2627C94.7051 41.9691 94.5934 42.6139 94.3701 43.1973C94.1514 43.7806 93.8392 44.2819 93.4336 44.7012C93.0326 45.1159 92.5518 45.4372 91.9912 45.665C91.4352 45.8883 90.82 46 90.1455 46ZM89.1406 36.0469V46H87.0898V36.0469H89.1406ZM102.376 36.0469V46H100.332V36.0469H102.376ZM116.397 36.0469V46H114.347L110.348 39.3281V46H108.297V36.0469H110.348L114.354 42.7256V36.0469H116.397ZM130.07 40.7979V44.7422C129.915 44.929 129.676 45.1318 129.353 45.3506C129.029 45.5648 128.612 45.7493 128.102 45.9043C127.591 46.0592 126.974 46.1367 126.249 46.1367C125.606 46.1367 125.021 46.0319 124.492 45.8223C123.964 45.6081 123.508 45.2959 123.125 44.8857C122.747 44.4756 122.455 43.9743 122.25 43.3818C122.045 42.7848 121.942 42.1035 121.942 41.3379V40.7158C121.942 39.9502 122.04 39.2689 122.236 38.6719C122.437 38.0749 122.722 37.5713 123.091 37.1611C123.46 36.751 123.9 36.4388 124.41 36.2246C124.921 36.0104 125.488 35.9033 126.112 35.9033C126.978 35.9033 127.689 36.0446 128.245 36.3271C128.801 36.6051 129.225 36.9925 129.517 37.4893C129.813 37.9814 129.995 38.5465 130.063 39.1846H128.074C128.024 38.8473 127.928 38.5534 127.787 38.3027C127.646 38.0521 127.443 37.8561 127.179 37.7148C126.919 37.5736 126.582 37.5029 126.167 37.5029C125.825 37.5029 125.52 37.5736 125.251 37.7148C124.987 37.8516 124.763 38.0544 124.581 38.3232C124.399 38.5921 124.26 38.9248 124.164 39.3213C124.068 39.7178 124.021 40.1781 124.021 40.7021V41.3379C124.021 41.8574 124.071 42.3177 124.171 42.7188C124.271 43.1152 124.419 43.4502 124.615 43.7236C124.816 43.9925 125.062 44.1953 125.354 44.332C125.645 44.4688 125.985 44.5371 126.372 44.5371C126.696 44.5371 126.965 44.5098 127.179 44.4551C127.397 44.4004 127.573 44.3343 127.705 44.2568C127.842 44.1748 127.947 44.0973 128.02 44.0244V42.2607H126.146V40.7979H130.07Z" fill="#3C46FF"/>
<path d="M43.4062 81.5352C43.4062 81.2305 43.3594 80.957 43.2656 80.7148C43.1797 80.4648 43.0156 80.2383 42.7734 80.0352C42.5312 79.8242 42.1914 79.6172 41.7539 79.4141C41.3164 79.2109 40.75 79 40.0547 78.7812C39.2812 78.5312 38.5469 78.25 37.8516 77.9375C37.1641 77.625 36.5547 77.2617 36.0234 76.8477C35.5 76.4258 35.0859 75.9375 34.7812 75.3828C34.4844 74.8281 34.3359 74.1836 34.3359 73.4492C34.3359 72.7383 34.4922 72.0938 34.8047 71.5156C35.1172 70.9297 35.5547 70.4297 36.1172 70.0156C36.6797 69.5938 37.3438 69.2695 38.1094 69.043C38.8828 68.8164 39.7305 68.7031 40.6523 68.7031C41.9102 68.7031 43.0078 68.9297 43.9453 69.3828C44.8828 69.8359 45.6094 70.457 46.125 71.2461C46.6484 72.0352 46.9102 72.9375 46.9102 73.9531H43.418C43.418 73.4531 43.3125 73.0156 43.1016 72.6406C42.8984 72.2578 42.5859 71.957 42.1641 71.7383C41.75 71.5195 41.2266 71.4102 40.5938 71.4102C39.9844 71.4102 39.4766 71.5039 39.0703 71.6914C38.6641 71.8711 38.3594 72.1172 38.1562 72.4297C37.9531 72.7344 37.8516 73.0781 37.8516 73.4609C37.8516 73.75 37.9219 74.0117 38.0625 74.2461C38.2109 74.4805 38.4297 74.6992 38.7188 74.9023C39.0078 75.1055 39.3633 75.2969 39.7852 75.4766C40.207 75.6562 40.6953 75.832 41.25 76.0039C42.1797 76.2852 42.9961 76.6016 43.6992 76.9531C44.4102 77.3047 45.0039 77.6992 45.4805 78.1367C45.957 78.5742 46.3164 79.0703 46.5586 79.625C46.8008 80.1797 46.9219 80.8086 46.9219 81.5117C46.9219 82.2539 46.7773 82.918 46.4883 83.5039C46.1992 84.0898 45.7812 84.5859 45.2344 84.9922C44.6875 85.3984 44.0352 85.707 43.2773 85.918C42.5195 86.1289 41.6719 86.2344 40.7344 86.2344C39.8906 86.2344 39.0586 86.125 38.2383 85.9062C37.418 85.6797 36.6719 85.3398 36 84.8867C35.3359 84.4336 34.8047 83.8555 34.4062 83.1523C34.0078 82.4492 33.8086 81.6172 33.8086 80.6562H37.3359C37.3359 81.1875 37.418 81.6367 37.582 82.0039C37.7461 82.3711 37.9766 82.668 38.2734 82.8945C38.5781 83.1211 38.9375 83.2852 39.3516 83.3867C39.7734 83.4883 40.2344 83.5391 40.7344 83.5391C41.3438 83.5391 41.8438 83.4531 42.2344 83.2812C42.6328 83.1094 42.9258 82.8711 43.1133 82.5664C43.3086 82.2617 43.4062 81.918 43.4062 81.5352ZM48.5625 79.7891V79.543C48.5625 78.6133 48.6953 77.7578 48.9609 76.9766C49.2266 76.1875 49.6133 75.5039 50.1211 74.9258C50.6289 74.3477 51.2539 73.8984 51.9961 73.5781C52.7383 73.25 53.5898 73.0859 54.5508 73.0859C55.5117 73.0859 56.3672 73.25 57.1172 73.5781C57.8672 73.8984 58.4961 74.3477 59.0039 74.9258C59.5195 75.5039 59.9102 76.1875 60.1758 76.9766C60.4414 77.7578 60.5742 78.6133 60.5742 79.543V79.7891C60.5742 80.7109 60.4414 81.5664 60.1758 82.3555C59.9102 83.1367 59.5195 83.8203 59.0039 84.4062C58.4961 84.9844 57.8711 85.4336 57.1289 85.7539C56.3867 86.0742 55.5352 86.2344 54.5742 86.2344C53.6133 86.2344 52.7578 86.0742 52.0078 85.7539C51.2656 85.4336 50.6367 84.9844 50.1211 84.4062C49.6133 83.8203 49.2266 83.1367 48.9609 82.3555C48.6953 81.5664 48.5625 80.7109 48.5625 79.7891ZM51.9375 79.543V79.7891C51.9375 80.3203 51.9844 80.8164 52.0781 81.2773C52.1719 81.7383 52.3203 82.1445 52.5234 82.4961C52.7344 82.8398 53.0078 83.1094 53.3438 83.3047C53.6797 83.5 54.0898 83.5977 54.5742 83.5977C55.043 83.5977 55.4453 83.5 55.7812 83.3047C56.1172 83.1094 56.3867 82.8398 56.5898 82.4961C56.793 82.1445 56.9414 81.7383 57.0352 81.2773C57.1367 80.8164 57.1875 80.3203 57.1875 79.7891V79.543C57.1875 79.0273 57.1367 78.543 57.0352 78.0898C56.9414 77.6289 56.7891 77.2227 56.5781 76.8711C56.375 76.5117 56.1055 76.2305 55.7695 76.0273C55.4336 75.8242 55.0273 75.7227 54.5508 75.7227C54.0742 75.7227 53.668 75.8242 53.332 76.0273C53.0039 76.2305 52.7344 76.5117 52.5234 76.8711C52.3203 77.2227 52.1719 77.6289 52.0781 78.0898C51.9844 78.543 51.9375 79.0273 51.9375 79.543ZM70.1484 82.9648V73.3203H73.5234V86H70.3477L70.1484 82.9648ZM70.5234 80.3633L71.5195 80.3398C71.5195 81.1836 71.4219 81.9688 71.2266 82.6953C71.0312 83.4141 70.7383 84.0391 70.3477 84.5703C69.957 85.0938 69.4648 85.5039 68.8711 85.8008C68.2773 86.0898 67.5781 86.2344 66.7734 86.2344C66.1562 86.2344 65.5859 86.1484 65.0625 85.9766C64.5469 85.7969 64.1016 85.5195 63.7266 85.1445C63.3594 84.7617 63.0703 84.2734 62.8594 83.6797C62.6562 83.0781 62.5547 82.3555 62.5547 81.5117V73.3203H65.9297V81.5352C65.9297 81.9102 65.9727 82.2266 66.0586 82.4844C66.1523 82.7422 66.2812 82.9531 66.4453 83.1172C66.6094 83.2812 66.8008 83.3984 67.0195 83.4688C67.2461 83.5391 67.4961 83.5742 67.7695 83.5742C68.4648 83.5742 69.0117 83.4336 69.4102 83.1523C69.8164 82.8711 70.1016 82.4883 70.2656 82.0039C70.4375 81.5117 70.5234 80.9648 70.5234 80.3633ZM79.6641 68V86H76.2773V68H79.6641ZM86.7539 86H83.3555V72.1953C83.3555 71.2344 83.543 70.4258 83.918 69.7695C84.3008 69.1055 84.8359 68.6055 85.5234 68.2695C86.2188 67.9258 87.043 67.7539 87.9961 67.7539C88.3086 67.7539 88.6094 67.7773 88.8984 67.8242C89.1875 67.8633 89.4688 67.9141 89.7422 67.9766L89.707 70.5195C89.5586 70.4805 89.4023 70.4531 89.2383 70.4375C89.0742 70.4219 88.8828 70.4141 88.6641 70.4141C88.2578 70.4141 87.9102 70.4844 87.6211 70.625C87.3398 70.7578 87.125 70.957 86.9766 71.2227C86.8281 71.4883 86.7539 71.8125 86.7539 72.1953V86ZM89.2852 73.3203V75.7109H81.4688V73.3203H89.2852ZM98.5547 82.9648V73.3203H101.93V86H98.7539L98.5547 82.9648ZM98.9297 80.3633L99.9258 80.3398C99.9258 81.1836 99.8281 81.9688 99.6328 82.6953C99.4375 83.4141 99.1445 84.0391 98.7539 84.5703C98.3633 85.0938 97.8711 85.5039 97.2773 85.8008C96.6836 86.0898 95.9844 86.2344 95.1797 86.2344C94.5625 86.2344 93.9922 86.1484 93.4688 85.9766C92.9531 85.7969 92.5078 85.5195 92.1328 85.1445C91.7656 84.7617 91.4766 84.2734 91.2656 83.6797C91.0625 83.0781 90.9609 82.3555 90.9609 81.5117V73.3203H94.3359V81.5352C94.3359 81.9102 94.3789 82.2266 94.4648 82.4844C94.5586 82.7422 94.6875 82.9531 94.8516 83.1172C95.0156 83.2812 95.207 83.3984 95.4258 83.4688C95.6523 83.5391 95.9023 83.5742 96.1758 83.5742C96.8711 83.5742 97.418 83.4336 97.8164 83.1523C98.2227 82.8711 98.5078 82.4883 98.6719 82.0039C98.8438 81.5117 98.9297 80.9648 98.9297 80.3633ZM108.07 68V86H104.684V68H108.07ZM117.047 68.9375H123.41C124.715 68.9375 125.836 69.1328 126.773 69.5234C127.719 69.9141 128.445 70.4922 128.953 71.2578C129.461 72.0234 129.715 72.9648 129.715 74.082C129.715 74.9961 129.559 75.7812 129.246 76.4375C128.941 77.0859 128.508 77.6289 127.945 78.0664C127.391 78.4961 126.738 78.8398 125.988 79.0977L124.875 79.6836H119.344L119.32 76.9414H123.434C124.051 76.9414 124.562 76.832 124.969 76.6133C125.375 76.3945 125.68 76.0898 125.883 75.6992C126.094 75.3086 126.199 74.8555 126.199 74.3398C126.199 73.793 126.098 73.3203 125.895 72.9219C125.691 72.5234 125.383 72.2188 124.969 72.0078C124.555 71.7969 124.035 71.6914 123.41 71.6914H120.562V86H117.047V68.9375ZM126.586 86L122.695 78.3945L126.41 78.3711L130.348 85.8359V86H126.586ZM138.047 86.2344C137.062 86.2344 136.18 86.0781 135.398 85.7656C134.617 85.4453 133.953 85.0039 133.406 84.4414C132.867 83.8789 132.453 83.2266 132.164 82.4844C131.875 81.7344 131.73 80.9375 131.73 80.0938V79.625C131.73 78.6641 131.867 77.7852 132.141 76.9883C132.414 76.1914 132.805 75.5 133.312 74.9141C133.828 74.3281 134.453 73.8789 135.188 73.5664C135.922 73.2461 136.75 73.0859 137.672 73.0859C138.57 73.0859 139.367 73.2344 140.062 73.5312C140.758 73.8281 141.34 74.25 141.809 74.7969C142.285 75.3438 142.645 76 142.887 76.7656C143.129 77.5234 143.25 78.3672 143.25 79.2969V80.7031H133.172V78.4531H139.934V78.1953C139.934 77.7266 139.848 77.3086 139.676 76.9414C139.512 76.5664 139.262 76.2695 138.926 76.0508C138.59 75.832 138.16 75.7227 137.637 75.7227C137.191 75.7227 136.809 75.8203 136.488 76.0156C136.168 76.2109 135.906 76.4844 135.703 76.8359C135.508 77.1875 135.359 77.6016 135.258 78.0781C135.164 78.5469 135.117 79.0625 135.117 79.625V80.0938C135.117 80.6016 135.188 81.0703 135.328 81.5C135.477 81.9297 135.684 82.3008 135.949 82.6133C136.223 82.9258 136.551 83.168 136.934 83.3398C137.324 83.5117 137.766 83.5977 138.258 83.5977C138.867 83.5977 139.434 83.4805 139.957 83.2461C140.488 83.0039 140.945 82.6406 141.328 82.1562L142.969 83.9375C142.703 84.3203 142.34 84.6875 141.879 85.0391C141.426 85.3906 140.879 85.6797 140.238 85.9062C139.598 86.125 138.867 86.2344 138.047 86.2344ZM145.172 68H148.547V83.0938L148.207 86H145.172V68ZM156.574 79.5312V79.7773C156.574 80.7227 156.473 81.5898 156.27 82.3789C156.074 83.168 155.77 83.8516 155.355 84.4297C154.941 85 154.426 85.4453 153.809 85.7656C153.199 86.0781 152.48 86.2344 151.652 86.2344C150.879 86.2344 150.207 86.0781 149.637 85.7656C149.074 85.4531 148.602 85.0117 148.219 84.4414C147.836 83.8711 147.527 83.2031 147.293 82.4375C147.059 81.6719 146.883 80.8359 146.766 79.9297V79.3906C146.883 78.4844 147.059 77.6484 147.293 76.8828C147.527 76.1172 147.836 75.4492 148.219 74.8789C148.602 74.3086 149.074 73.8672 149.637 73.5547C150.199 73.2422 150.863 73.0859 151.629 73.0859C152.465 73.0859 153.191 73.2461 153.809 73.5664C154.434 73.8789 154.949 74.3242 155.355 74.9023C155.77 75.4727 156.074 76.1523 156.27 76.9414C156.473 77.7227 156.574 78.5859 156.574 79.5312ZM153.199 79.7773V79.5312C153.199 79.0156 153.16 78.5312 153.082 78.0781C153.012 77.6172 152.887 77.2148 152.707 76.8711C152.527 76.5195 152.281 76.2422 151.969 76.0391C151.664 75.8359 151.27 75.7344 150.785 75.7344C150.324 75.7344 149.934 75.8125 149.613 75.9688C149.293 76.125 149.027 76.3438 148.816 76.625C148.613 76.9062 148.461 77.2422 148.359 77.6328C148.258 78.0156 148.195 78.4375 148.172 78.8984V80.4336C148.195 81.0508 148.297 81.5977 148.477 82.0742C148.664 82.543 148.945 82.9141 149.32 83.1875C149.703 83.4531 150.199 83.5859 150.809 83.5859C151.285 83.5859 151.68 83.4922 151.992 83.3047C152.305 83.1172 152.547 82.8516 152.719 82.5078C152.898 82.1641 153.023 81.7617 153.094 81.3008C153.164 80.832 153.199 80.3242 153.199 79.7773ZM162.047 76.0859V86H158.672V73.3203H161.848L162.047 76.0859ZM165.867 73.2383L165.809 76.3672C165.645 76.3438 165.445 76.3242 165.211 76.3086C164.984 76.2852 164.777 76.2734 164.59 76.2734C164.113 76.2734 163.699 76.3359 163.348 76.4609C163.004 76.5781 162.715 76.7539 162.48 76.9883C162.254 77.2227 162.082 77.5078 161.965 77.8438C161.855 78.1797 161.793 78.5625 161.777 78.9922L161.098 78.7812C161.098 77.9609 161.18 77.207 161.344 76.5195C161.508 75.8242 161.746 75.2188 162.059 74.7031C162.379 74.1875 162.77 73.7891 163.23 73.5078C163.691 73.2266 164.219 73.0859 164.812 73.0859C165 73.0859 165.191 73.1016 165.387 73.1328C165.582 73.1562 165.742 73.1914 165.867 73.2383ZM173.906 83.1406V77.4922C173.906 77.0859 173.84 76.7383 173.707 76.4492C173.574 76.1523 173.367 75.9219 173.086 75.7578C172.812 75.5938 172.457 75.5117 172.02 75.5117C171.645 75.5117 171.32 75.5781 171.047 75.7109C170.773 75.8359 170.562 76.0195 170.414 76.2617C170.266 76.4961 170.191 76.7734 170.191 77.0938H166.816C166.816 76.5547 166.941 76.043 167.191 75.5586C167.441 75.0742 167.805 74.6484 168.281 74.2812C168.758 73.9062 169.324 73.6133 169.98 73.4023C170.645 73.1914 171.387 73.0859 172.207 73.0859C173.191 73.0859 174.066 73.25 174.832 73.5781C175.598 73.9062 176.199 74.3984 176.637 75.0547C177.082 75.7109 177.305 76.5312 177.305 77.5156V82.9414C177.305 83.6367 177.348 84.207 177.434 84.6523C177.52 85.0898 177.645 85.4727 177.809 85.8008V86H174.398C174.234 85.6562 174.109 85.2266 174.023 84.7109C173.945 84.1875 173.906 83.6641 173.906 83.1406ZM174.352 78.2773L174.375 80.1875H172.488C172.043 80.1875 171.656 80.2383 171.328 80.3398C171 80.4414 170.73 80.5859 170.52 80.7734C170.309 80.9531 170.152 81.1641 170.051 81.4062C169.957 81.6484 169.91 81.9141 169.91 82.2031C169.91 82.4922 169.977 82.7539 170.109 82.9883C170.242 83.2148 170.434 83.3945 170.684 83.5273C170.934 83.6523 171.227 83.7148 171.562 83.7148C172.07 83.7148 172.512 83.6133 172.887 83.4102C173.262 83.207 173.551 82.957 173.754 82.6602C173.965 82.3633 174.074 82.082 174.082 81.8164L174.973 83.2461C174.848 83.5664 174.676 83.8984 174.457 84.2422C174.246 84.5859 173.977 84.9102 173.648 85.2148C173.32 85.5117 172.926 85.7578 172.465 85.9531C172.004 86.1406 171.457 86.2344 170.824 86.2344C170.02 86.2344 169.289 86.0742 168.633 85.7539C167.984 85.4258 167.469 84.9766 167.086 84.4062C166.711 83.8281 166.523 83.1719 166.523 82.4375C166.523 81.7734 166.648 81.1836 166.898 80.668C167.148 80.1523 167.516 79.7188 168 79.3672C168.492 79.0078 169.105 78.7383 169.84 78.5586C170.574 78.3711 171.426 78.2773 172.395 78.2773H174.352ZM183.211 76.0273V86H179.836V73.3203H183L183.211 76.0273ZM182.719 79.2148H181.805C181.805 78.2773 181.926 77.4336 182.168 76.6836C182.41 75.9258 182.75 75.2812 183.188 74.75C183.625 74.2109 184.145 73.8008 184.746 73.5195C185.355 73.2305 186.035 73.0859 186.785 73.0859C187.379 73.0859 187.922 73.1719 188.414 73.3438C188.906 73.5156 189.328 73.7891 189.68 74.1641C190.039 74.5391 190.312 75.0352 190.5 75.6523C190.695 76.2695 190.793 77.0234 190.793 77.9141V86H187.395V77.9023C187.395 77.3398 187.316 76.9023 187.16 76.5898C187.004 76.2773 186.773 76.0586 186.469 75.9336C186.172 75.8008 185.805 75.7344 185.367 75.7344C184.914 75.7344 184.52 75.8242 184.184 76.0039C183.855 76.1836 183.582 76.4336 183.363 76.7539C183.152 77.0664 182.992 77.4336 182.883 77.8555C182.773 78.2773 182.719 78.7305 182.719 79.2148ZM200.848 83.2344V68H204.246V86H201.188L200.848 83.2344ZM192.832 79.8125V79.5664C192.832 78.5977 192.941 77.7188 193.16 76.9297C193.379 76.1328 193.699 75.4492 194.121 74.8789C194.543 74.3086 195.062 73.8672 195.68 73.5547C196.297 73.2422 197 73.0859 197.789 73.0859C198.531 73.0859 199.18 73.2422 199.734 73.5547C200.297 73.8672 200.773 74.3125 201.164 74.8906C201.562 75.4609 201.883 76.1367 202.125 76.918C202.367 77.6914 202.543 78.5391 202.652 79.4609V80C202.543 80.8828 202.367 81.7031 202.125 82.4609C201.883 83.2188 201.562 83.8828 201.164 84.4531C200.773 85.0156 200.297 85.4531 199.734 85.7656C199.172 86.0781 198.516 86.2344 197.766 86.2344C196.977 86.2344 196.273 86.0742 195.656 85.7539C195.047 85.4336 194.531 84.9844 194.109 84.4062C193.695 83.8281 193.379 83.1484 193.16 82.3672C192.941 81.5859 192.832 80.7344 192.832 79.8125ZM196.207 79.5664V79.8125C196.207 80.3359 196.246 80.8242 196.324 81.2773C196.41 81.7305 196.547 82.1328 196.734 82.4844C196.93 82.8281 197.18 83.0977 197.484 83.293C197.797 83.4805 198.176 83.5742 198.621 83.5742C199.199 83.5742 199.676 83.4453 200.051 83.1875C200.426 82.9219 200.711 82.5586 200.906 82.0977C201.109 81.6367 201.227 81.1055 201.258 80.5039V78.9688C201.234 78.4766 201.164 78.0352 201.047 77.6445C200.938 77.2461 200.773 76.9062 200.555 76.625C200.344 76.3438 200.078 76.125 199.758 75.9688C199.445 75.8125 199.074 75.7344 198.645 75.7344C198.207 75.7344 197.832 75.8359 197.52 76.0391C197.207 76.2344 196.953 76.5039 196.758 76.8477C196.57 77.1914 196.43 77.5977 196.336 78.0664C196.25 78.5273 196.207 79.0273 196.207 79.5664Z" fill="black"/>
<defs>
<clipPath id="clip0_1_574">
<rect width="15" height="15" fill="white" transform="translate(150 115)"/>
</clipPath>
</defs>
</svg>
