<svg width="487" height="164" viewBox="0 0 487 164" fill="none" xmlns="http://www.w3.org/2000/svg">
<g clip-path="url(#clip0_1_587)">
<path d="M161.225 121.357L156.436 116.568L157.698 115.306L164.643 122.25L157.698 129.195L156.436 127.932L161.225 123.143H150.357V121.357H161.225Z" fill="black"/>
</g>
<path d="M38.6162 124.058L42.3867 113.203H44.2236L39.4863 126H38.1768L38.6162 124.058ZM35.0918 113.203L38.8271 124.058L39.293 126H37.9834L33.2549 113.203H35.0918ZM47.4668 116.49V126H45.832V116.49H47.4668ZM45.709 113.968C45.709 113.704 45.7881 113.481 45.9463 113.3C46.1104 113.118 46.3506 113.027 46.667 113.027C46.9775 113.027 47.2148 113.118 47.3789 113.3C47.5488 113.481 47.6338 113.704 47.6338 113.968C47.6338 114.22 47.5488 114.437 47.3789 114.618C47.2148 114.794 46.9775 114.882 46.667 114.882C46.3506 114.882 46.1104 114.794 45.9463 114.618C45.7881 114.437 45.709 114.22 45.709 113.968ZM54.0234 126.176C53.3613 126.176 52.7607 126.064 52.2217 125.842C51.6885 125.613 51.2285 125.294 50.8418 124.884C50.4609 124.474 50.168 123.987 49.9629 123.425C49.7578 122.862 49.6553 122.247 49.6553 121.579V121.21C49.6553 120.437 49.7695 119.748 49.998 119.145C50.2266 118.535 50.5371 118.02 50.9297 117.598C51.3223 117.176 51.7676 116.856 52.2656 116.64C52.7637 116.423 53.2793 116.314 53.8125 116.314C54.4922 116.314 55.0781 116.432 55.5703 116.666C56.0684 116.9 56.4756 117.229 56.792 117.65C57.1084 118.066 57.3428 118.559 57.4951 119.127C57.6475 119.689 57.7236 120.305 57.7236 120.973V121.702H50.6221V120.375H56.0977V120.252C56.0742 119.83 55.9863 119.42 55.834 119.021C55.6875 118.623 55.4531 118.295 55.1309 118.037C54.8086 117.779 54.3691 117.65 53.8125 117.65C53.4434 117.65 53.1035 117.729 52.793 117.888C52.4824 118.04 52.2158 118.269 51.9932 118.573C51.7705 118.878 51.5977 119.25 51.4746 119.689C51.3516 120.129 51.29 120.636 51.29 121.21V121.579C51.29 122.03 51.3516 122.455 51.4746 122.854C51.6035 123.246 51.7881 123.592 52.0283 123.891C52.2744 124.189 52.5703 124.424 52.916 124.594C53.2676 124.764 53.666 124.849 54.1113 124.849C54.6855 124.849 55.1719 124.731 55.5703 124.497C55.9688 124.263 56.3174 123.949 56.6162 123.557L57.6006 124.339C57.3955 124.649 57.1348 124.945 56.8184 125.227C56.502 125.508 56.1123 125.736 55.6494 125.912C55.1924 126.088 54.6504 126.176 54.0234 126.176ZM62.0303 124.312L64.4736 116.49H65.5459L65.335 118.046L62.8477 126H61.8018L62.0303 124.312ZM60.3867 116.49L62.4697 124.4L62.6191 126H61.5205L58.7607 116.49H60.3867ZM67.8838 124.339L69.8701 116.49H71.4873L68.7275 126H67.6377L67.8838 124.339ZM65.7832 116.49L68.1738 124.181L68.4463 126H67.4092L64.8516 118.028L64.6406 116.49H65.7832ZM82.5879 120.981H79.1689V119.602H82.5879C83.25 119.602 83.7861 119.496 84.1963 119.285C84.6064 119.074 84.9053 118.781 85.0928 118.406C85.2861 118.031 85.3828 117.604 85.3828 117.123C85.3828 116.684 85.2861 116.271 85.0928 115.884C84.9053 115.497 84.6064 115.187 84.1963 114.952C83.7861 114.712 83.25 114.592 82.5879 114.592H79.5645V126H77.8682V113.203H82.5879C83.5547 113.203 84.3721 113.37 85.04 113.704C85.708 114.038 86.2148 114.501 86.5605 115.093C86.9062 115.679 87.0791 116.35 87.0791 117.105C87.0791 117.926 86.9062 118.626 86.5605 119.206C86.2148 119.786 85.708 120.229 85.04 120.533C84.3721 120.832 83.5547 120.981 82.5879 120.981ZM90.6035 117.984V126H88.9775V116.49H90.5596L90.6035 117.984ZM93.5742 116.438L93.5654 117.949C93.4307 117.92 93.3018 117.902 93.1787 117.896C93.0615 117.885 92.9268 117.879 92.7744 117.879C92.3994 117.879 92.0684 117.938 91.7812 118.055C91.4941 118.172 91.251 118.336 91.0518 118.547C90.8525 118.758 90.6943 119.01 90.5771 119.303C90.4658 119.59 90.3926 119.906 90.3574 120.252L89.9004 120.516C89.9004 119.941 89.9561 119.402 90.0674 118.898C90.1846 118.395 90.3633 117.949 90.6035 117.562C90.8438 117.17 91.1484 116.865 91.5176 116.648C91.8926 116.426 92.3379 116.314 92.8535 116.314C92.9707 116.314 93.1055 116.329 93.2578 116.358C93.4102 116.382 93.5156 116.408 93.5742 116.438ZM94.4707 121.351V121.148C94.4707 120.463 94.5703 119.827 94.7695 119.241C94.9688 118.649 95.2559 118.137 95.6309 117.703C96.0059 117.264 96.46 116.924 96.9932 116.684C97.5264 116.438 98.124 116.314 98.7861 116.314C99.4541 116.314 100.055 116.438 100.588 116.684C101.127 116.924 101.584 117.264 101.959 117.703C102.34 118.137 102.63 118.649 102.829 119.241C103.028 119.827 103.128 120.463 103.128 121.148V121.351C103.128 122.036 103.028 122.672 102.829 123.258C102.63 123.844 102.34 124.356 101.959 124.796C101.584 125.229 101.13 125.569 100.597 125.815C100.069 126.056 99.4717 126.176 98.8037 126.176C98.1357 126.176 97.5352 126.056 97.002 125.815C96.4688 125.569 96.0117 125.229 95.6309 124.796C95.2559 124.356 94.9688 123.844 94.7695 123.258C94.5703 122.672 94.4707 122.036 94.4707 121.351ZM96.0967 121.148V121.351C96.0967 121.825 96.1523 122.273 96.2637 122.695C96.375 123.111 96.542 123.48 96.7646 123.803C96.9932 124.125 97.2773 124.38 97.6172 124.567C97.957 124.749 98.3525 124.84 98.8037 124.84C99.249 124.84 99.6387 124.749 99.9727 124.567C100.312 124.38 100.594 124.125 100.816 123.803C101.039 123.48 101.206 123.111 101.317 122.695C101.435 122.273 101.493 121.825 101.493 121.351V121.148C101.493 120.68 101.435 120.237 101.317 119.821C101.206 119.399 101.036 119.027 100.808 118.705C100.585 118.377 100.304 118.119 99.9639 117.932C99.6299 117.744 99.2373 117.65 98.7861 117.65C98.3408 117.65 97.9482 117.744 97.6084 117.932C97.2744 118.119 96.9932 118.377 96.7646 118.705C96.542 119.027 96.375 119.399 96.2637 119.821C96.1523 120.237 96.0967 120.68 96.0967 121.148ZM105.211 116.49H106.846V127.134C106.846 127.714 106.752 128.206 106.564 128.61C106.383 129.015 106.107 129.319 105.738 129.524C105.375 129.735 104.915 129.841 104.358 129.841C104.212 129.841 104.042 129.826 103.849 129.797C103.649 129.768 103.482 129.732 103.348 129.691L103.356 128.382C103.468 128.405 103.594 128.423 103.734 128.435C103.875 128.452 103.998 128.461 104.104 128.461C104.344 128.461 104.546 128.417 104.71 128.329C104.874 128.241 104.997 128.101 105.079 127.907C105.167 127.714 105.211 127.456 105.211 127.134V116.49ZM105.044 113.968C105.044 113.704 105.126 113.481 105.29 113.3C105.454 113.118 105.691 113.027 106.002 113.027C106.318 113.027 106.559 113.118 106.723 113.3C106.887 113.481 106.969 113.704 106.969 113.968C106.969 114.22 106.887 114.437 106.723 114.618C106.559 114.794 106.318 114.882 106.002 114.882C105.691 114.882 105.454 114.794 105.29 114.618C105.126 114.437 105.044 114.22 105.044 113.968ZM113.42 126.176C112.758 126.176 112.157 126.064 111.618 125.842C111.085 125.613 110.625 125.294 110.238 124.884C109.857 124.474 109.564 123.987 109.359 123.425C109.154 122.862 109.052 122.247 109.052 121.579V121.21C109.052 120.437 109.166 119.748 109.395 119.145C109.623 118.535 109.934 118.02 110.326 117.598C110.719 117.176 111.164 116.856 111.662 116.64C112.16 116.423 112.676 116.314 113.209 116.314C113.889 116.314 114.475 116.432 114.967 116.666C115.465 116.9 115.872 117.229 116.188 117.65C116.505 118.066 116.739 118.559 116.892 119.127C117.044 119.689 117.12 120.305 117.12 120.973V121.702H110.019V120.375H115.494V120.252C115.471 119.83 115.383 119.42 115.23 119.021C115.084 118.623 114.85 118.295 114.527 118.037C114.205 117.779 113.766 117.65 113.209 117.65C112.84 117.65 112.5 117.729 112.189 117.888C111.879 118.04 111.612 118.269 111.39 118.573C111.167 118.878 110.994 119.25 110.871 119.689C110.748 120.129 110.687 120.636 110.687 121.21V121.579C110.687 122.03 110.748 122.455 110.871 122.854C111 123.246 111.185 123.592 111.425 123.891C111.671 124.189 111.967 124.424 112.312 124.594C112.664 124.764 113.062 124.849 113.508 124.849C114.082 124.849 114.568 124.731 114.967 124.497C115.365 124.263 115.714 123.949 116.013 123.557L116.997 124.339C116.792 124.649 116.531 124.945 116.215 125.227C115.898 125.508 115.509 125.736 115.046 125.912C114.589 126.088 114.047 126.176 113.42 126.176ZM122.824 124.84C123.211 124.84 123.568 124.761 123.896 124.603C124.225 124.444 124.494 124.228 124.705 123.952C124.916 123.671 125.036 123.352 125.065 122.994H126.612C126.583 123.557 126.393 124.081 126.041 124.567C125.695 125.048 125.241 125.438 124.679 125.736C124.116 126.029 123.498 126.176 122.824 126.176C122.109 126.176 121.485 126.05 120.952 125.798C120.425 125.546 119.985 125.2 119.634 124.761C119.288 124.321 119.027 123.817 118.852 123.249C118.682 122.675 118.597 122.068 118.597 121.43V121.061C118.597 120.422 118.682 119.818 118.852 119.25C119.027 118.676 119.288 118.169 119.634 117.729C119.985 117.29 120.425 116.944 120.952 116.692C121.485 116.44 122.109 116.314 122.824 116.314C123.568 116.314 124.219 116.467 124.775 116.771C125.332 117.07 125.769 117.48 126.085 118.002C126.407 118.518 126.583 119.104 126.612 119.76H125.065C125.036 119.367 124.925 119.013 124.731 118.696C124.544 118.38 124.286 118.128 123.958 117.94C123.636 117.747 123.258 117.65 122.824 117.65C122.326 117.65 121.907 117.75 121.567 117.949C121.233 118.143 120.967 118.406 120.768 118.74C120.574 119.068 120.434 119.435 120.346 119.839C120.264 120.237 120.223 120.645 120.223 121.061V121.43C120.223 121.846 120.264 122.256 120.346 122.66C120.428 123.064 120.565 123.431 120.759 123.759C120.958 124.087 121.225 124.351 121.559 124.55C121.898 124.743 122.32 124.84 122.824 124.84ZM132.422 116.49V117.738H127.28V116.49H132.422ZM129.021 114.179H130.646V123.645C130.646 123.967 130.696 124.21 130.796 124.374C130.896 124.538 131.024 124.646 131.183 124.699C131.341 124.752 131.511 124.778 131.692 124.778C131.827 124.778 131.968 124.767 132.114 124.743C132.267 124.714 132.381 124.69 132.457 124.673L132.466 126C132.337 126.041 132.167 126.079 131.956 126.114C131.751 126.155 131.502 126.176 131.209 126.176C130.811 126.176 130.444 126.097 130.11 125.938C129.776 125.78 129.51 125.517 129.311 125.147C129.117 124.772 129.021 124.269 129.021 123.636V114.179Z" fill="black"/>
<path d="M39.7617 86H36.0469L36.0703 83.2578H39.7617C40.6836 83.2578 41.4609 83.0508 42.0938 82.6367C42.7266 82.2148 43.2031 81.6016 43.5234 80.7969C43.8516 79.9922 44.0156 79.0195 44.0156 77.8789V77.0469C44.0156 76.1719 43.9219 75.4023 43.7344 74.7383C43.5547 74.0742 43.2852 73.5156 42.9258 73.0625C42.5664 72.6094 42.125 72.2695 41.6016 72.043C41.0781 71.8086 40.4766 71.6914 39.7969 71.6914H35.9766V68.9375H39.7969C40.9375 68.9375 41.9805 69.1328 42.9258 69.5234C43.8789 69.9062 44.7031 70.457 45.3984 71.1758C46.0938 71.8945 46.6289 72.7539 47.0039 73.7539C47.3867 74.7461 47.5781 75.8516 47.5781 77.0703V77.8789C47.5781 79.0898 47.3867 80.1953 47.0039 81.1953C46.6289 82.1953 46.0938 83.0547 45.3984 83.7734C44.7109 84.4844 43.8867 85.0352 42.9258 85.4258C41.9727 85.8086 40.918 86 39.7617 86ZM38.0391 68.9375V86H34.5234V68.9375H38.0391ZM56.7656 83.1406V77.4922C56.7656 77.0859 56.6992 76.7383 56.5664 76.4492C56.4336 76.1523 56.2266 75.9219 55.9453 75.7578C55.6719 75.5938 55.3164 75.5117 54.8789 75.5117C54.5039 75.5117 54.1797 75.5781 53.9062 75.7109C53.6328 75.8359 53.4219 76.0195 53.2734 76.2617C53.125 76.4961 53.0508 76.7734 53.0508 77.0938H49.6758C49.6758 76.5547 49.8008 76.043 50.0508 75.5586C50.3008 75.0742 50.6641 74.6484 51.1406 74.2812C51.6172 73.9062 52.1836 73.6133 52.8398 73.4023C53.5039 73.1914 54.2461 73.0859 55.0664 73.0859C56.0508 73.0859 56.9258 73.25 57.6914 73.5781C58.457 73.9062 59.0586 74.3984 59.4961 75.0547C59.9414 75.7109 60.1641 76.5312 60.1641 77.5156V82.9414C60.1641 83.6367 60.207 84.207 60.293 84.6523C60.3789 85.0898 60.5039 85.4727 60.668 85.8008V86H57.2578C57.0938 85.6562 56.9688 85.2266 56.8828 84.7109C56.8047 84.1875 56.7656 83.6641 56.7656 83.1406ZM57.2109 78.2773L57.2344 80.1875H55.3477C54.9023 80.1875 54.5156 80.2383 54.1875 80.3398C53.8594 80.4414 53.5898 80.5859 53.3789 80.7734C53.168 80.9531 53.0117 81.1641 52.9102 81.4062C52.8164 81.6484 52.7695 81.9141 52.7695 82.2031C52.7695 82.4922 52.8359 82.7539 52.9688 82.9883C53.1016 83.2148 53.293 83.3945 53.543 83.5273C53.793 83.6523 54.0859 83.7148 54.4219 83.7148C54.9297 83.7148 55.3711 83.6133 55.7461 83.4102C56.1211 83.207 56.4102 82.957 56.6133 82.6602C56.8242 82.3633 56.9336 82.082 56.9414 81.8164L57.832 83.2461C57.707 83.5664 57.5352 83.8984 57.3164 84.2422C57.1055 84.5859 56.8359 84.9102 56.5078 85.2148C56.1797 85.5117 55.7852 85.7578 55.3242 85.9531C54.8633 86.1406 54.3164 86.2344 53.6836 86.2344C52.8789 86.2344 52.1484 86.0742 51.4922 85.7539C50.8438 85.4258 50.3281 84.9766 49.9453 84.4062C49.5703 83.8281 49.3828 83.1719 49.3828 82.4375C49.3828 81.7734 49.5078 81.1836 49.7578 80.668C50.0078 80.1523 50.375 79.7188 50.8594 79.3672C51.3516 79.0078 51.9648 78.7383 52.6992 78.5586C53.4336 78.3711 54.2852 78.2773 55.2539 78.2773H57.2109ZM68.9766 73.3203V75.7109H61.5938V73.3203H68.9766ZM63.4219 70.1914H66.7969V82.1797C66.7969 82.5469 66.8438 82.8281 66.9375 83.0234C67.0391 83.2188 67.1875 83.3555 67.3828 83.4336C67.5781 83.5039 67.8242 83.5391 68.1211 83.5391C68.332 83.5391 68.5195 83.5312 68.6836 83.5156C68.8555 83.4922 69 83.4688 69.1172 83.4453L69.1289 85.9297C68.8398 86.0234 68.5273 86.0977 68.1914 86.1523C67.8555 86.207 67.4844 86.2344 67.0781 86.2344C66.3359 86.2344 65.6875 86.1133 65.1328 85.8711C64.5859 85.6211 64.1641 85.2227 63.8672 84.6758C63.5703 84.1289 63.4219 83.4102 63.4219 82.5195V70.1914ZM77.7422 83.1406V77.4922C77.7422 77.0859 77.6758 76.7383 77.543 76.4492C77.4102 76.1523 77.2031 75.9219 76.9219 75.7578C76.6484 75.5938 76.293 75.5117 75.8555 75.5117C75.4805 75.5117 75.1562 75.5781 74.8828 75.7109C74.6094 75.8359 74.3984 76.0195 74.25 76.2617C74.1016 76.4961 74.0273 76.7734 74.0273 77.0938H70.6523C70.6523 76.5547 70.7773 76.043 71.0273 75.5586C71.2773 75.0742 71.6406 74.6484 72.1172 74.2812C72.5938 73.9062 73.1602 73.6133 73.8164 73.4023C74.4805 73.1914 75.2227 73.0859 76.043 73.0859C77.0273 73.0859 77.9023 73.25 78.668 73.5781C79.4336 73.9062 80.0352 74.3984 80.4727 75.0547C80.918 75.7109 81.1406 76.5312 81.1406 77.5156V82.9414C81.1406 83.6367 81.1836 84.207 81.2695 84.6523C81.3555 85.0898 81.4805 85.4727 81.6445 85.8008V86H78.2344C78.0703 85.6562 77.9453 85.2266 77.8594 84.7109C77.7812 84.1875 77.7422 83.6641 77.7422 83.1406ZM78.1875 78.2773L78.2109 80.1875H76.3242C75.8789 80.1875 75.4922 80.2383 75.1641 80.3398C74.8359 80.4414 74.5664 80.5859 74.3555 80.7734C74.1445 80.9531 73.9883 81.1641 73.8867 81.4062C73.793 81.6484 73.7461 81.9141 73.7461 82.2031C73.7461 82.4922 73.8125 82.7539 73.9453 82.9883C74.0781 83.2148 74.2695 83.3945 74.5195 83.5273C74.7695 83.6523 75.0625 83.7148 75.3984 83.7148C75.9062 83.7148 76.3477 83.6133 76.7227 83.4102C77.0977 83.207 77.3867 82.957 77.5898 82.6602C77.8008 82.3633 77.9102 82.082 77.918 81.8164L78.8086 83.2461C78.6836 83.5664 78.5117 83.8984 78.293 84.2422C78.082 84.5859 77.8125 84.9102 77.4844 85.2148C77.1562 85.5117 76.7617 85.7578 76.3008 85.9531C75.8398 86.1406 75.293 86.2344 74.6602 86.2344C73.8555 86.2344 73.125 86.0742 72.4688 85.7539C71.8203 85.4258 71.3047 84.9766 70.9219 84.4062C70.5469 83.8281 70.3594 83.1719 70.3594 82.4375C70.3594 81.7734 70.4844 81.1836 70.7344 80.668C70.9844 80.1523 71.3516 79.7188 71.8359 79.3672C72.3281 79.0078 72.9414 78.7383 73.6758 78.5586C74.4102 78.3711 75.2617 78.2773 76.2305 78.2773H78.1875ZM91.2305 83.2344V68H94.6289V86H91.5703L91.2305 83.2344ZM83.2148 79.8125V79.5664C83.2148 78.5977 83.3242 77.7188 83.543 76.9297C83.7617 76.1328 84.082 75.4492 84.5039 74.8789C84.9258 74.3086 85.4453 73.8672 86.0625 73.5547C86.6797 73.2422 87.3828 73.0859 88.1719 73.0859C88.9141 73.0859 89.5625 73.2422 90.1172 73.5547C90.6797 73.8672 91.1562 74.3125 91.5469 74.8906C91.9453 75.4609 92.2656 76.1367 92.5078 76.918C92.75 77.6914 92.9258 78.5391 93.0352 79.4609V80C92.9258 80.8828 92.75 81.7031 92.5078 82.4609C92.2656 83.2188 91.9453 83.8828 91.5469 84.4531C91.1562 85.0156 90.6797 85.4531 90.1172 85.7656C89.5547 86.0781 88.8984 86.2344 88.1484 86.2344C87.3594 86.2344 86.6562 86.0742 86.0391 85.7539C85.4297 85.4336 84.9141 84.9844 84.4922 84.4062C84.0781 83.8281 83.7617 83.1484 83.543 82.3672C83.3242 81.5859 83.2148 80.7344 83.2148 79.8125ZM86.5898 79.5664V79.8125C86.5898 80.3359 86.6289 80.8242 86.707 81.2773C86.793 81.7305 86.9297 82.1328 87.1172 82.4844C87.3125 82.8281 87.5625 83.0977 87.8672 83.293C88.1797 83.4805 88.5586 83.5742 89.0039 83.5742C89.582 83.5742 90.0586 83.4453 90.4336 83.1875C90.8086 82.9219 91.0938 82.5586 91.2891 82.0977C91.4922 81.6367 91.6094 81.1055 91.6406 80.5039V78.9688C91.6172 78.4766 91.5469 78.0352 91.4297 77.6445C91.3203 77.2461 91.1562 76.9062 90.9375 76.625C90.7266 76.3438 90.4609 76.125 90.1406 75.9688C89.8281 75.8125 89.457 75.7344 89.0273 75.7344C88.5898 75.7344 88.2148 75.8359 87.9023 76.0391C87.5898 76.2344 87.3359 76.5039 87.1406 76.8477C86.9531 77.1914 86.8125 77.5977 86.7188 78.0664C86.6328 78.5273 86.5898 79.0273 86.5898 79.5664ZM104.109 83.1406V77.4922C104.109 77.0859 104.043 76.7383 103.91 76.4492C103.777 76.1523 103.57 75.9219 103.289 75.7578C103.016 75.5938 102.66 75.5117 102.223 75.5117C101.848 75.5117 101.523 75.5781 101.25 75.7109C100.977 75.8359 100.766 76.0195 100.617 76.2617C100.469 76.4961 100.395 76.7734 100.395 77.0938H97.0195C97.0195 76.5547 97.1445 76.043 97.3945 75.5586C97.6445 75.0742 98.0078 74.6484 98.4844 74.2812C98.9609 73.9062 99.5273 73.6133 100.184 73.4023C100.848 73.1914 101.59 73.0859 102.41 73.0859C103.395 73.0859 104.27 73.25 105.035 73.5781C105.801 73.9062 106.402 74.3984 106.84 75.0547C107.285 75.7109 107.508 76.5312 107.508 77.5156V82.9414C107.508 83.6367 107.551 84.207 107.637 84.6523C107.723 85.0898 107.848 85.4727 108.012 85.8008V86H104.602C104.438 85.6562 104.312 85.2266 104.227 84.7109C104.148 84.1875 104.109 83.6641 104.109 83.1406ZM104.555 78.2773L104.578 80.1875H102.691C102.246 80.1875 101.859 80.2383 101.531 80.3398C101.203 80.4414 100.934 80.5859 100.723 80.7734C100.512 80.9531 100.355 81.1641 100.254 81.4062C100.16 81.6484 100.113 81.9141 100.113 82.2031C100.113 82.4922 100.18 82.7539 100.312 82.9883C100.445 83.2148 100.637 83.3945 100.887 83.5273C101.137 83.6523 101.43 83.7148 101.766 83.7148C102.273 83.7148 102.715 83.6133 103.09 83.4102C103.465 83.207 103.754 82.957 103.957 82.6602C104.168 82.3633 104.277 82.082 104.285 81.8164L105.176 83.2461C105.051 83.5664 104.879 83.8984 104.66 84.2422C104.449 84.5859 104.18 84.9102 103.852 85.2148C103.523 85.5117 103.129 85.7578 102.668 85.9531C102.207 86.1406 101.66 86.2344 101.027 86.2344C100.223 86.2344 99.4922 86.0742 98.8359 85.7539C98.1875 85.4258 97.6719 84.9766 97.2891 84.4062C96.9141 83.8281 96.7266 83.1719 96.7266 82.4375C96.7266 81.7734 96.8516 81.1836 97.1016 80.668C97.3516 80.1523 97.7188 79.7188 98.2031 79.3672C98.6953 79.0078 99.3086 78.7383 100.043 78.5586C100.777 78.3711 101.629 78.2773 102.598 78.2773H104.555ZM116.965 82.4961C116.965 82.2539 116.895 82.0352 116.754 81.8398C116.613 81.6445 116.352 81.4648 115.969 81.3008C115.594 81.1289 115.051 80.9727 114.34 80.832C113.699 80.6914 113.102 80.5156 112.547 80.3047C112 80.0859 111.523 79.8242 111.117 79.5195C110.719 79.2148 110.406 78.8555 110.18 78.4414C109.953 78.0195 109.84 77.5391 109.84 77C109.84 76.4688 109.953 75.9688 110.18 75.5C110.414 75.0312 110.746 74.6172 111.176 74.2578C111.613 73.8906 112.145 73.6055 112.77 73.4023C113.402 73.1914 114.113 73.0859 114.902 73.0859C116.004 73.0859 116.949 73.2617 117.738 73.6133C118.535 73.9648 119.145 74.4492 119.566 75.0664C119.996 75.6758 120.211 76.3711 120.211 77.1523H116.836C116.836 76.8242 116.766 76.5312 116.625 76.2734C116.492 76.0078 116.281 75.8008 115.992 75.6523C115.711 75.4961 115.344 75.418 114.891 75.418C114.516 75.418 114.191 75.4844 113.918 75.6172C113.645 75.7422 113.434 75.9141 113.285 76.1328C113.145 76.3438 113.074 76.5781 113.074 76.8359C113.074 77.0312 113.113 77.207 113.191 77.3633C113.277 77.5117 113.414 77.6484 113.602 77.7734C113.789 77.8984 114.031 78.0156 114.328 78.125C114.633 78.2266 115.008 78.3203 115.453 78.4062C116.367 78.5938 117.184 78.8398 117.902 79.1445C118.621 79.4414 119.191 79.8477 119.613 80.3633C120.035 80.8711 120.246 81.5391 120.246 82.3672C120.246 82.9297 120.121 83.4453 119.871 83.9141C119.621 84.3828 119.262 84.793 118.793 85.1445C118.324 85.4883 117.762 85.7578 117.105 85.9531C116.457 86.1406 115.727 86.2344 114.914 86.2344C113.734 86.2344 112.734 86.0234 111.914 85.6016C111.102 85.1797 110.484 84.6445 110.062 83.9961C109.648 83.3398 109.441 82.668 109.441 81.9805H112.641C112.656 82.4414 112.773 82.8125 112.992 83.0938C113.219 83.375 113.504 83.5781 113.848 83.7031C114.199 83.8281 114.578 83.8906 114.984 83.8906C115.422 83.8906 115.785 83.832 116.074 83.7148C116.363 83.5898 116.582 83.4258 116.73 83.2227C116.887 83.0117 116.965 82.7695 116.965 82.4961ZM125.73 68V86H122.355V68H125.73ZM125.25 79.2148H124.324C124.332 78.332 124.449 77.5195 124.676 76.7773C124.902 76.0273 125.227 75.3789 125.648 74.832C126.07 74.2773 126.574 73.8477 127.16 73.543C127.754 73.2383 128.41 73.0859 129.129 73.0859C129.754 73.0859 130.32 73.1758 130.828 73.3555C131.344 73.5273 131.785 73.8086 132.152 74.1992C132.527 74.582 132.816 75.0859 133.02 75.7109C133.223 76.3359 133.324 77.0938 133.324 77.9844V86H129.926V77.9609C129.926 77.3984 129.844 76.957 129.68 76.6367C129.523 76.3086 129.293 76.0781 128.988 75.9453C128.691 75.8047 128.324 75.7344 127.887 75.7344C127.402 75.7344 126.988 75.8242 126.645 76.0039C126.309 76.1836 126.039 76.4336 125.836 76.7539C125.633 77.0664 125.484 77.4336 125.391 77.8555C125.297 78.2773 125.25 78.7305 125.25 79.2148ZM148.723 79.918H144.375V77.1758H148.723C149.395 77.1758 149.941 77.0664 150.363 76.8477C150.785 76.6211 151.094 76.3086 151.289 75.9102C151.484 75.5117 151.582 75.0625 151.582 74.5625C151.582 74.0547 151.484 73.582 151.289 73.1445C151.094 72.707 150.785 72.3555 150.363 72.0898C149.941 71.8242 149.395 71.6914 148.723 71.6914H145.594V86H142.078V68.9375H148.723C150.059 68.9375 151.203 69.1797 152.156 69.6641C153.117 70.1406 153.852 70.8008 154.359 71.6445C154.867 72.4883 155.121 73.4531 155.121 74.5391C155.121 75.6406 154.867 76.5938 154.359 77.3984C153.852 78.2031 153.117 78.8242 152.156 79.2617C151.203 79.6992 150.059 79.918 148.723 79.918ZM160.711 76.0859V86H157.336V73.3203H160.512L160.711 76.0859ZM164.531 73.2383L164.473 76.3672C164.309 76.3438 164.109 76.3242 163.875 76.3086C163.648 76.2852 163.441 76.2734 163.254 76.2734C162.777 76.2734 162.363 76.3359 162.012 76.4609C161.668 76.5781 161.379 76.7539 161.145 76.9883C160.918 77.2227 160.746 77.5078 160.629 77.8438C160.52 78.1797 160.457 78.5625 160.441 78.9922L159.762 78.7812C159.762 77.9609 159.844 77.207 160.008 76.5195C160.172 75.8242 160.41 75.2188 160.723 74.7031C161.043 74.1875 161.434 73.7891 161.895 73.5078C162.355 73.2266 162.883 73.0859 163.477 73.0859C163.664 73.0859 163.855 73.1016 164.051 73.1328C164.246 73.1562 164.406 73.1914 164.531 73.2383ZM165.234 79.7891V79.543C165.234 78.6133 165.367 77.7578 165.633 76.9766C165.898 76.1875 166.285 75.5039 166.793 74.9258C167.301 74.3477 167.926 73.8984 168.668 73.5781C169.41 73.25 170.262 73.0859 171.223 73.0859C172.184 73.0859 173.039 73.25 173.789 73.5781C174.539 73.8984 175.168 74.3477 175.676 74.9258C176.191 75.5039 176.582 76.1875 176.848 76.9766C177.113 77.7578 177.246 78.6133 177.246 79.543V79.7891C177.246 80.7109 177.113 81.5664 176.848 82.3555C176.582 83.1367 176.191 83.8203 175.676 84.4062C175.168 84.9844 174.543 85.4336 173.801 85.7539C173.059 86.0742 172.207 86.2344 171.246 86.2344C170.285 86.2344 169.43 86.0742 168.68 85.7539C167.938 85.4336 167.309 84.9844 166.793 84.4062C166.285 83.8203 165.898 83.1367 165.633 82.3555C165.367 81.5664 165.234 80.7109 165.234 79.7891ZM168.609 79.543V79.7891C168.609 80.3203 168.656 80.8164 168.75 81.2773C168.844 81.7383 168.992 82.1445 169.195 82.4961C169.406 82.8398 169.68 83.1094 170.016 83.3047C170.352 83.5 170.762 83.5977 171.246 83.5977C171.715 83.5977 172.117 83.5 172.453 83.3047C172.789 83.1094 173.059 82.8398 173.262 82.4961C173.465 82.1445 173.613 81.7383 173.707 81.2773C173.809 80.8164 173.859 80.3203 173.859 79.7891V79.543C173.859 79.0273 173.809 78.543 173.707 78.0898C173.613 77.6289 173.461 77.2227 173.25 76.8711C173.047 76.5117 172.777 76.2305 172.441 76.0273C172.105 75.8242 171.699 75.7227 171.223 75.7227C170.746 75.7227 170.34 75.8242 170.004 76.0273C169.676 76.2305 169.406 76.5117 169.195 76.8711C168.992 77.2227 168.844 77.6289 168.75 78.0898C168.656 78.543 168.609 79.0273 168.609 79.543ZM186.809 83.2344V68H190.207V86H187.148L186.809 83.2344ZM178.793 79.8125V79.5664C178.793 78.5977 178.902 77.7188 179.121 76.9297C179.34 76.1328 179.66 75.4492 180.082 74.8789C180.504 74.3086 181.023 73.8672 181.641 73.5547C182.258 73.2422 182.961 73.0859 183.75 73.0859C184.492 73.0859 185.141 73.2422 185.695 73.5547C186.258 73.8672 186.734 74.3125 187.125 74.8906C187.523 75.4609 187.844 76.1367 188.086 76.918C188.328 77.6914 188.504 78.5391 188.613 79.4609V80C188.504 80.8828 188.328 81.7031 188.086 82.4609C187.844 83.2188 187.523 83.8828 187.125 84.4531C186.734 85.0156 186.258 85.4531 185.695 85.7656C185.133 86.0781 184.477 86.2344 183.727 86.2344C182.938 86.2344 182.234 86.0742 181.617 85.7539C181.008 85.4336 180.492 84.9844 180.07 84.4062C179.656 83.8281 179.34 83.1484 179.121 82.3672C178.902 81.5859 178.793 80.7344 178.793 79.8125ZM182.168 79.5664V79.8125C182.168 80.3359 182.207 80.8242 182.285 81.2773C182.371 81.7305 182.508 82.1328 182.695 82.4844C182.891 82.8281 183.141 83.0977 183.445 83.293C183.758 83.4805 184.137 83.5742 184.582 83.5742C185.16 83.5742 185.637 83.4453 186.012 83.1875C186.387 82.9219 186.672 82.5586 186.867 82.0977C187.07 81.6367 187.188 81.1055 187.219 80.5039V78.9688C187.195 78.4766 187.125 78.0352 187.008 77.6445C186.898 77.2461 186.734 76.9062 186.516 76.625C186.305 76.3438 186.039 76.125 185.719 75.9688C185.406 75.8125 185.035 75.7344 184.605 75.7344C184.168 75.7344 183.793 75.8359 183.48 76.0391C183.168 76.2344 182.914 76.5039 182.719 76.8477C182.531 77.1914 182.391 77.5977 182.297 78.0664C182.211 78.5273 182.168 79.0273 182.168 79.5664ZM200.344 82.9648V73.3203H203.719V86H200.543L200.344 82.9648ZM200.719 80.3633L201.715 80.3398C201.715 81.1836 201.617 81.9688 201.422 82.6953C201.227 83.4141 200.934 84.0391 200.543 84.5703C200.152 85.0938 199.66 85.5039 199.066 85.8008C198.473 86.0898 197.773 86.2344 196.969 86.2344C196.352 86.2344 195.781 86.1484 195.258 85.9766C194.742 85.7969 194.297 85.5195 193.922 85.1445C193.555 84.7617 193.266 84.2734 193.055 83.6797C192.852 83.0781 192.75 82.3555 192.75 81.5117V73.3203H196.125V81.5352C196.125 81.9102 196.168 82.2266 196.254 82.4844C196.348 82.7422 196.477 82.9531 196.641 83.1172C196.805 83.2812 196.996 83.3984 197.215 83.4688C197.441 83.5391 197.691 83.5742 197.965 83.5742C198.66 83.5742 199.207 83.4336 199.605 83.1523C200.012 82.8711 200.297 82.4883 200.461 82.0039C200.633 81.5117 200.719 80.9648 200.719 80.3633ZM211.535 83.5977C211.949 83.5977 212.316 83.5195 212.637 83.3633C212.957 83.1992 213.207 82.9727 213.387 82.6836C213.574 82.3867 213.672 82.0391 213.68 81.6406H216.855C216.848 82.5312 216.609 83.3242 216.141 84.0195C215.672 84.707 215.043 85.25 214.254 85.6484C213.465 86.0391 212.582 86.2344 211.605 86.2344C210.621 86.2344 209.762 86.0703 209.027 85.7422C208.301 85.4141 207.695 84.9609 207.211 84.3828C206.727 83.7969 206.363 83.1172 206.121 82.3438C205.879 81.5625 205.758 80.7266 205.758 79.8359V79.4961C205.758 78.5977 205.879 77.7617 206.121 76.9883C206.363 76.207 206.727 75.5273 207.211 74.9492C207.695 74.3633 208.301 73.9062 209.027 73.5781C209.754 73.25 210.605 73.0859 211.582 73.0859C212.621 73.0859 213.531 73.2852 214.312 73.6836C215.102 74.082 215.719 74.6523 216.164 75.3945C216.617 76.1289 216.848 77 216.855 78.0078H213.68C213.672 77.5859 213.582 77.2031 213.41 76.8594C213.246 76.5156 213.004 76.2422 212.684 76.0391C212.371 75.8281 211.984 75.7227 211.523 75.7227C211.031 75.7227 210.629 75.8281 210.316 76.0391C210.004 76.2422 209.762 76.5234 209.59 76.8828C209.418 77.2344 209.297 77.6367 209.227 78.0898C209.164 78.5352 209.133 79.0039 209.133 79.4961V79.8359C209.133 80.3281 209.164 80.8008 209.227 81.2539C209.289 81.707 209.406 82.1094 209.578 82.4609C209.758 82.8125 210.004 83.0898 210.316 83.293C210.629 83.4961 211.035 83.5977 211.535 83.5977ZM225.023 73.3203V75.7109H217.641V73.3203H225.023ZM219.469 70.1914H222.844V82.1797C222.844 82.5469 222.891 82.8281 222.984 83.0234C223.086 83.2188 223.234 83.3555 223.43 83.4336C223.625 83.5039 223.871 83.5391 224.168 83.5391C224.379 83.5391 224.566 83.5312 224.73 83.5156C224.902 83.4922 225.047 83.4688 225.164 83.4453L225.176 85.9297C224.887 86.0234 224.574 86.0977 224.238 86.1523C223.902 86.207 223.531 86.2344 223.125 86.2344C222.383 86.2344 221.734 86.1133 221.18 85.8711C220.633 85.6211 220.211 85.2227 219.914 84.6758C219.617 84.1289 219.469 83.4102 219.469 82.5195V70.1914ZM240.41 83.2344V68H243.809V86H240.75L240.41 83.2344ZM232.395 79.8125V79.5664C232.395 78.5977 232.504 77.7188 232.723 76.9297C232.941 76.1328 233.262 75.4492 233.684 74.8789C234.105 74.3086 234.625 73.8672 235.242 73.5547C235.859 73.2422 236.562 73.0859 237.352 73.0859C238.094 73.0859 238.742 73.2422 239.297 73.5547C239.859 73.8672 240.336 74.3125 240.727 74.8906C241.125 75.4609 241.445 76.1367 241.688 76.918C241.93 77.6914 242.105 78.5391 242.215 79.4609V80C242.105 80.8828 241.93 81.7031 241.688 82.4609C241.445 83.2188 241.125 83.8828 240.727 84.4531C240.336 85.0156 239.859 85.4531 239.297 85.7656C238.734 86.0781 238.078 86.2344 237.328 86.2344C236.539 86.2344 235.836 86.0742 235.219 85.7539C234.609 85.4336 234.094 84.9844 233.672 84.4062C233.258 83.8281 232.941 83.1484 232.723 82.3672C232.504 81.5859 232.395 80.7344 232.395 79.8125ZM235.77 79.5664V79.8125C235.77 80.3359 235.809 80.8242 235.887 81.2773C235.973 81.7305 236.109 82.1328 236.297 82.4844C236.492 82.8281 236.742 83.0977 237.047 83.293C237.359 83.4805 237.738 83.5742 238.184 83.5742C238.762 83.5742 239.238 83.4453 239.613 83.1875C239.988 82.9219 240.273 82.5586 240.469 82.0977C240.672 81.6367 240.789 81.1055 240.82 80.5039V78.9688C240.797 78.4766 240.727 78.0352 240.609 77.6445C240.5 77.2461 240.336 76.9062 240.117 76.625C239.906 76.3438 239.641 76.125 239.32 75.9688C239.008 75.8125 238.637 75.7344 238.207 75.7344C237.77 75.7344 237.395 75.8359 237.082 76.0391C236.77 76.2344 236.516 76.5039 236.32 76.8477C236.133 77.1914 235.992 77.5977 235.898 78.0664C235.812 78.5273 235.77 79.0273 235.77 79.5664ZM252.281 86.2344C251.297 86.2344 250.414 86.0781 249.633 85.7656C248.852 85.4453 248.188 85.0039 247.641 84.4414C247.102 83.8789 246.688 83.2266 246.398 82.4844C246.109 81.7344 245.965 80.9375 245.965 80.0938V79.625C245.965 78.6641 246.102 77.7852 246.375 76.9883C246.648 76.1914 247.039 75.5 247.547 74.9141C248.062 74.3281 248.688 73.8789 249.422 73.5664C250.156 73.2461 250.984 73.0859 251.906 73.0859C252.805 73.0859 253.602 73.2344 254.297 73.5312C254.992 73.8281 255.574 74.25 256.043 74.7969C256.52 75.3438 256.879 76 257.121 76.7656C257.363 77.5234 257.484 78.3672 257.484 79.2969V80.7031H247.406V78.4531H254.168V78.1953C254.168 77.7266 254.082 77.3086 253.91 76.9414C253.746 76.5664 253.496 76.2695 253.16 76.0508C252.824 75.832 252.395 75.7227 251.871 75.7227C251.426 75.7227 251.043 75.8203 250.723 76.0156C250.402 76.2109 250.141 76.4844 249.938 76.8359C249.742 77.1875 249.594 77.6016 249.492 78.0781C249.398 78.5469 249.352 79.0625 249.352 79.625V80.0938C249.352 80.6016 249.422 81.0703 249.562 81.5C249.711 81.9297 249.918 82.3008 250.184 82.6133C250.457 82.9258 250.785 83.168 251.168 83.3398C251.559 83.5117 252 83.5977 252.492 83.5977C253.102 83.5977 253.668 83.4805 254.191 83.2461C254.723 83.0039 255.18 82.6406 255.562 82.1562L257.203 83.9375C256.938 84.3203 256.574 84.6875 256.113 85.0391C255.66 85.3906 255.113 85.6797 254.473 85.9062C253.832 86.125 253.102 86.2344 252.281 86.2344ZM266.262 82.4961C266.262 82.2539 266.191 82.0352 266.051 81.8398C265.91 81.6445 265.648 81.4648 265.266 81.3008C264.891 81.1289 264.348 80.9727 263.637 80.832C262.996 80.6914 262.398 80.5156 261.844 80.3047C261.297 80.0859 260.82 79.8242 260.414 79.5195C260.016 79.2148 259.703 78.8555 259.477 78.4414C259.25 78.0195 259.137 77.5391 259.137 77C259.137 76.4688 259.25 75.9688 259.477 75.5C259.711 75.0312 260.043 74.6172 260.473 74.2578C260.91 73.8906 261.441 73.6055 262.066 73.4023C262.699 73.1914 263.41 73.0859 264.199 73.0859C265.301 73.0859 266.246 73.2617 267.035 73.6133C267.832 73.9648 268.441 74.4492 268.863 75.0664C269.293 75.6758 269.508 76.3711 269.508 77.1523H266.133C266.133 76.8242 266.062 76.5312 265.922 76.2734C265.789 76.0078 265.578 75.8008 265.289 75.6523C265.008 75.4961 264.641 75.418 264.188 75.418C263.812 75.418 263.488 75.4844 263.215 75.6172C262.941 75.7422 262.73 75.9141 262.582 76.1328C262.441 76.3438 262.371 76.5781 262.371 76.8359C262.371 77.0312 262.41 77.207 262.488 77.3633C262.574 77.5117 262.711 77.6484 262.898 77.7734C263.086 77.8984 263.328 78.0156 263.625 78.125C263.93 78.2266 264.305 78.3203 264.75 78.4062C265.664 78.5938 266.48 78.8398 267.199 79.1445C267.918 79.4414 268.488 79.8477 268.91 80.3633C269.332 80.8711 269.543 81.5391 269.543 82.3672C269.543 82.9297 269.418 83.4453 269.168 83.9141C268.918 84.3828 268.559 84.793 268.09 85.1445C267.621 85.4883 267.059 85.7578 266.402 85.9531C265.754 86.1406 265.023 86.2344 264.211 86.2344C263.031 86.2344 262.031 86.0234 261.211 85.6016C260.398 85.1797 259.781 84.6445 259.359 83.9961C258.945 83.3398 258.738 82.668 258.738 81.9805H261.938C261.953 82.4414 262.07 82.8125 262.289 83.0938C262.516 83.375 262.801 83.5781 263.145 83.7031C263.496 83.8281 263.875 83.8906 264.281 83.8906C264.719 83.8906 265.082 83.832 265.371 83.7148C265.66 83.5898 265.879 83.4258 266.027 83.2227C266.184 83.0117 266.262 82.7695 266.262 82.4961ZM275.297 73.3203V86H271.91V73.3203H275.297ZM271.699 70.0156C271.699 69.5234 271.871 69.1172 272.215 68.7969C272.559 68.4766 273.02 68.3164 273.598 68.3164C274.168 68.3164 274.625 68.4766 274.969 68.7969C275.32 69.1172 275.496 69.5234 275.496 70.0156C275.496 70.5078 275.32 70.9141 274.969 71.2344C274.625 71.5547 274.168 71.7148 273.598 71.7148C273.02 71.7148 272.559 71.5547 272.215 71.2344C271.871 70.9141 271.699 70.5078 271.699 70.0156ZM286.113 73.3203H289.172V85.5781C289.172 86.7344 288.914 87.7148 288.398 88.5195C287.891 89.332 287.18 89.9453 286.266 90.3594C285.352 90.7812 284.289 90.9922 283.078 90.9922C282.547 90.9922 281.984 90.9219 281.391 90.7812C280.805 90.6406 280.242 90.4219 279.703 90.125C279.172 89.8281 278.727 89.4531 278.367 89L279.855 87.0078C280.246 87.4609 280.699 87.8125 281.215 88.0625C281.73 88.3203 282.301 88.4492 282.926 88.4492C283.535 88.4492 284.051 88.3359 284.473 88.1094C284.895 87.8906 285.219 87.5664 285.445 87.1367C285.672 86.7148 285.785 86.2031 285.785 85.6016V76.25L286.113 73.3203ZM277.582 79.8125V79.5664C277.582 78.5977 277.699 77.7188 277.934 76.9297C278.176 76.1328 278.516 75.4492 278.953 74.8789C279.398 74.3086 279.938 73.8672 280.57 73.5547C281.203 73.2422 281.918 73.0859 282.715 73.0859C283.559 73.0859 284.266 73.2422 284.836 73.5547C285.406 73.8672 285.875 74.3125 286.242 74.8906C286.609 75.4609 286.895 76.1367 287.098 76.918C287.309 77.6914 287.473 78.5391 287.59 79.4609V80C287.473 80.8828 287.297 81.7031 287.062 82.4609C286.828 83.2188 286.52 83.8828 286.137 84.4531C285.754 85.0156 285.277 85.4531 284.707 85.7656C284.145 86.0781 283.473 86.2344 282.691 86.2344C281.91 86.2344 281.203 86.0742 280.57 85.7539C279.945 85.4336 279.41 84.9844 278.965 84.4062C278.52 83.8281 278.176 83.1484 277.934 82.3672C277.699 81.5859 277.582 80.7344 277.582 79.8125ZM280.957 79.5664V79.8125C280.957 80.3359 281.008 80.8242 281.109 81.2773C281.211 81.7305 281.367 82.1328 281.578 82.4844C281.797 82.8281 282.066 83.0977 282.387 83.293C282.715 83.4805 283.102 83.5742 283.547 83.5742C284.164 83.5742 284.668 83.4453 285.059 83.1875C285.449 82.9219 285.742 82.5586 285.938 82.0977C286.133 81.6367 286.246 81.1055 286.277 80.5039V78.9688C286.262 78.4766 286.195 78.0352 286.078 77.6445C285.961 77.2461 285.797 76.9062 285.586 76.625C285.375 76.3438 285.102 76.125 284.766 75.9688C284.43 75.8125 284.031 75.7344 283.57 75.7344C283.125 75.7344 282.738 75.8359 282.41 76.0391C282.09 76.2344 281.82 76.5039 281.602 76.8477C281.391 77.1914 281.23 77.5977 281.121 78.0664C281.012 78.5273 280.957 79.0273 280.957 79.5664ZM295.102 76.0273V86H291.727V73.3203H294.891L295.102 76.0273ZM294.609 79.2148H293.695C293.695 78.2773 293.816 77.4336 294.059 76.6836C294.301 75.9258 294.641 75.2812 295.078 74.75C295.516 74.2109 296.035 73.8008 296.637 73.5195C297.246 73.2305 297.926 73.0859 298.676 73.0859C299.27 73.0859 299.812 73.1719 300.305 73.3438C300.797 73.5156 301.219 73.7891 301.57 74.1641C301.93 74.5391 302.203 75.0352 302.391 75.6523C302.586 76.2695 302.684 77.0234 302.684 77.9141V86H299.285V77.9023C299.285 77.3398 299.207 76.9023 299.051 76.5898C298.895 76.2773 298.664 76.0586 298.359 75.9336C298.062 75.8008 297.695 75.7344 297.258 75.7344C296.805 75.7344 296.41 75.8242 296.074 76.0039C295.746 76.1836 295.473 76.4336 295.254 76.7539C295.043 77.0664 294.883 77.4336 294.773 77.8555C294.664 78.2773 294.609 78.7305 294.609 79.2148Z" fill="black"/>
<path d="M37.7646 42.4521H35.2285V40.8525H37.7646C38.1566 40.8525 38.4756 40.7887 38.7217 40.6611C38.9678 40.529 39.1478 40.3467 39.2617 40.1143C39.3757 39.8818 39.4326 39.6198 39.4326 39.3281C39.4326 39.0319 39.3757 38.7562 39.2617 38.501C39.1478 38.2458 38.9678 38.0407 38.7217 37.8857C38.4756 37.7308 38.1566 37.6533 37.7646 37.6533H35.9395V46H33.8887V36.0469H37.7646C38.5439 36.0469 39.2116 36.1882 39.7676 36.4707C40.3281 36.7487 40.7565 37.1338 41.0527 37.626C41.349 38.1182 41.4971 38.681 41.4971 39.3145C41.4971 39.957 41.349 40.513 41.0527 40.9824C40.7565 41.4518 40.3281 41.8141 39.7676 42.0693C39.2116 42.3245 38.5439 42.4521 37.7646 42.4521ZM46.9121 36.0469H50.624C51.3851 36.0469 52.0391 36.1608 52.5859 36.3887C53.1374 36.6165 53.5612 36.9538 53.8574 37.4004C54.1536 37.847 54.3018 38.3962 54.3018 39.0479C54.3018 39.5811 54.2106 40.0391 54.0283 40.4219C53.8506 40.8001 53.5977 41.1169 53.2695 41.3721C52.946 41.6227 52.5654 41.8232 52.1279 41.9736L51.4785 42.3154H48.252L48.2383 40.7158H50.6377C50.9977 40.7158 51.2962 40.652 51.5332 40.5244C51.7702 40.3968 51.9479 40.2191 52.0664 39.9912C52.1895 39.7633 52.251 39.499 52.251 39.1982C52.251 38.8792 52.1917 38.6035 52.0732 38.3711C51.9548 38.1387 51.7747 37.9609 51.5332 37.8379C51.2917 37.7148 50.9886 37.6533 50.624 37.6533H48.9629V46H46.9121V36.0469ZM52.4766 46L50.207 41.5635L52.374 41.5498L54.6709 45.9043V46H52.4766ZM68.0566 40.791V41.2627C68.0566 42.0192 67.9541 42.6982 67.749 43.2998C67.5439 43.9014 67.2546 44.4141 66.8809 44.8379C66.5072 45.2572 66.0605 45.5785 65.541 45.8018C65.026 46.0251 64.4541 46.1367 63.8252 46.1367C63.2008 46.1367 62.6289 46.0251 62.1094 45.8018C61.5944 45.5785 61.1478 45.2572 60.7695 44.8379C60.3913 44.4141 60.0973 43.9014 59.8877 43.2998C59.6826 42.6982 59.5801 42.0192 59.5801 41.2627V40.791C59.5801 40.0299 59.6826 39.3509 59.8877 38.7539C60.0928 38.1523 60.3822 37.6396 60.7559 37.2158C61.1341 36.792 61.5807 36.4684 62.0957 36.2451C62.6152 36.0218 63.1872 35.9102 63.8115 35.9102C64.4404 35.9102 65.0124 36.0218 65.5273 36.2451C66.0469 36.4684 66.4935 36.792 66.8672 37.2158C67.2454 37.6396 67.5371 38.1523 67.7422 38.7539C67.9518 39.3509 68.0566 40.0299 68.0566 40.791ZM65.9854 41.2627V40.7773C65.9854 40.2487 65.9375 39.7839 65.8418 39.3828C65.7461 38.9818 65.6048 38.6445 65.418 38.3711C65.2311 38.0977 65.0033 37.8926 64.7344 37.7559C64.4655 37.6146 64.1579 37.5439 63.8115 37.5439C63.4652 37.5439 63.1576 37.6146 62.8887 37.7559C62.6243 37.8926 62.3988 38.0977 62.2119 38.3711C62.0296 38.6445 61.8906 38.9818 61.7949 39.3828C61.6992 39.7839 61.6514 40.2487 61.6514 40.7773V41.2627C61.6514 41.7868 61.6992 42.2516 61.7949 42.6572C61.8906 43.0583 62.0319 43.3978 62.2188 43.6758C62.4056 43.9492 62.6335 44.1566 62.9023 44.2979C63.1712 44.4391 63.4788 44.5098 63.8252 44.5098C64.1715 44.5098 64.4792 44.4391 64.748 44.2979C65.0169 44.1566 65.2425 43.9492 65.4248 43.6758C65.6071 43.3978 65.7461 43.0583 65.8418 42.6572C65.9375 42.2516 65.9854 41.7868 65.9854 41.2627ZM76.5889 46H74.4219L74.4355 44.4004H76.5889C77.1266 44.4004 77.5801 44.2796 77.9492 44.0381C78.3184 43.792 78.5964 43.4342 78.7832 42.9648C78.9746 42.4954 79.0703 41.9281 79.0703 41.2627V40.7773C79.0703 40.2669 79.0156 39.818 78.9062 39.4307C78.8014 39.0433 78.6442 38.7174 78.4346 38.4531C78.2249 38.1888 77.9674 37.9906 77.6621 37.8584C77.3568 37.7217 77.0059 37.6533 76.6094 37.6533H74.3809V36.0469H76.6094C77.2747 36.0469 77.8831 36.1608 78.4346 36.3887C78.9906 36.612 79.4714 36.9333 79.877 37.3525C80.2826 37.7718 80.5947 38.2731 80.8135 38.8564C81.0368 39.4352 81.1484 40.0801 81.1484 40.791V41.2627C81.1484 41.9691 81.0368 42.6139 80.8135 43.1973C80.5947 43.7806 80.2826 44.2819 79.877 44.7012C79.4759 45.1159 78.9951 45.4372 78.4346 45.665C77.8786 45.8883 77.2633 46 76.5889 46ZM75.584 36.0469V46H73.5332V36.0469H75.584ZM92.1348 36.0469H94.1787V42.623C94.1787 43.3887 94.0146 44.0335 93.6865 44.5576C93.363 45.0817 92.9141 45.4759 92.3398 45.7402C91.7702 46.0046 91.1139 46.1367 90.3711 46.1367C89.6283 46.1367 88.9674 46.0046 88.3887 45.7402C87.8145 45.4759 87.3633 45.0817 87.0352 44.5576C86.7116 44.0335 86.5498 43.3887 86.5498 42.623V36.0469H88.6006V42.623C88.6006 43.0697 88.6712 43.4342 88.8125 43.7168C88.9538 43.9993 89.1566 44.2067 89.4209 44.3389C89.6898 44.471 90.0065 44.5371 90.3711 44.5371C90.7448 44.5371 91.0615 44.471 91.3213 44.3389C91.5856 44.2067 91.7861 43.9993 91.9229 43.7168C92.0641 43.4342 92.1348 43.0697 92.1348 42.623V36.0469ZM105.637 42.6982H107.681C107.64 43.3682 107.455 43.9629 107.127 44.4824C106.803 45.002 106.35 45.4076 105.767 45.6992C105.188 45.9909 104.491 46.1367 103.675 46.1367C103.037 46.1367 102.465 46.0273 101.959 45.8086C101.453 45.5853 101.02 45.2663 100.66 44.8516C100.305 44.4368 100.034 43.9355 99.8467 43.3477C99.6598 42.7598 99.5664 42.1012 99.5664 41.3721V40.6816C99.5664 39.9525 99.6621 39.2939 99.8535 38.7061C100.049 38.1136 100.327 37.61 100.688 37.1953C101.052 36.7806 101.487 36.4616 101.993 36.2383C102.499 36.015 103.064 35.9033 103.688 35.9033C104.518 35.9033 105.217 36.0537 105.787 36.3545C106.361 36.6553 106.806 37.07 107.12 37.5986C107.439 38.1273 107.631 38.7288 107.694 39.4033H105.644C105.621 39.0023 105.541 38.6628 105.404 38.3848C105.268 38.1022 105.06 37.8903 104.782 37.749C104.509 37.6032 104.144 37.5303 103.688 37.5303C103.347 37.5303 103.048 37.5941 102.793 37.7217C102.538 37.8493 102.324 38.043 102.15 38.3027C101.977 38.5625 101.847 38.8906 101.761 39.2871C101.679 39.679 101.638 40.1393 101.638 40.668V41.3721C101.638 41.887 101.676 42.3405 101.754 42.7324C101.831 43.1198 101.95 43.4479 102.109 43.7168C102.273 43.9811 102.483 44.1816 102.738 44.3184C102.998 44.4505 103.31 44.5166 103.675 44.5166C104.103 44.5166 104.456 44.4482 104.734 44.3115C105.012 44.1748 105.224 43.972 105.37 43.7031C105.521 43.4342 105.609 43.0993 105.637 42.6982ZM117.272 36.0469V46H115.229V36.0469H117.272ZM120.335 36.0469V37.6533H112.214V36.0469H120.335ZM135.677 46H133.51L133.523 44.4004H135.677C136.215 44.4004 136.668 44.2796 137.037 44.0381C137.406 43.792 137.684 43.4342 137.871 42.9648C138.062 42.4954 138.158 41.9281 138.158 41.2627V40.7773C138.158 40.2669 138.104 39.818 137.994 39.4307C137.889 39.0433 137.732 38.7174 137.522 38.4531C137.313 38.1888 137.055 37.9906 136.75 37.8584C136.445 37.7217 136.094 37.6533 135.697 37.6533H133.469V36.0469H135.697C136.363 36.0469 136.971 36.1608 137.522 36.3887C138.078 36.612 138.559 36.9333 138.965 37.3525C139.37 37.7718 139.683 38.2731 139.901 38.8564C140.125 39.4352 140.236 40.0801 140.236 40.791V41.2627C140.236 41.9691 140.125 42.6139 139.901 43.1973C139.683 43.7806 139.37 44.2819 138.965 44.7012C138.564 45.1159 138.083 45.4372 137.522 45.665C136.966 45.8883 136.351 46 135.677 46ZM134.672 36.0469V46H132.621V36.0469H134.672ZM152.405 44.4004V46H147.107V44.4004H152.405ZM147.777 36.0469V46H145.727V36.0469H147.777ZM151.715 40.1006V41.6592H147.107V40.1006H151.715ZM152.398 36.0469V37.6533H147.107V36.0469H152.398ZM162.783 43.3955C162.783 43.2178 162.756 43.0583 162.701 42.917C162.651 42.7712 162.555 42.639 162.414 42.5205C162.273 42.3975 162.075 42.2767 161.819 42.1582C161.564 42.0397 161.234 41.9167 160.828 41.7891C160.377 41.6432 159.949 41.4792 159.543 41.2969C159.142 41.1146 158.786 40.9027 158.477 40.6611C158.171 40.415 157.93 40.1302 157.752 39.8066C157.579 39.4831 157.492 39.1071 157.492 38.6787C157.492 38.264 157.583 37.888 157.766 37.5508C157.948 37.209 158.203 36.9173 158.531 36.6758C158.859 36.4297 159.247 36.2406 159.693 36.1084C160.145 35.9762 160.639 35.9102 161.177 35.9102C161.91 35.9102 162.551 36.0423 163.098 36.3066C163.645 36.571 164.068 36.9333 164.369 37.3936C164.674 37.8538 164.827 38.3802 164.827 38.9727H162.79C162.79 38.681 162.729 38.4258 162.605 38.207C162.487 37.9837 162.305 37.8083 162.059 37.6807C161.817 37.5531 161.512 37.4893 161.143 37.4893C160.787 37.4893 160.491 37.5439 160.254 37.6533C160.017 37.7581 159.839 37.9017 159.721 38.084C159.602 38.2617 159.543 38.4622 159.543 38.6855C159.543 38.8542 159.584 39.0068 159.666 39.1436C159.753 39.2803 159.88 39.4079 160.049 39.5264C160.217 39.6449 160.425 39.7565 160.671 39.8613C160.917 39.9661 161.202 40.0687 161.525 40.1689C162.068 40.333 162.544 40.5176 162.954 40.7227C163.369 40.9277 163.715 41.1579 163.993 41.4131C164.271 41.6683 164.481 41.9577 164.622 42.2812C164.763 42.6048 164.834 42.9717 164.834 43.3818C164.834 43.8148 164.75 44.2021 164.581 44.5439C164.412 44.8857 164.169 45.1751 163.85 45.4121C163.531 45.6491 163.15 45.8291 162.708 45.9521C162.266 46.0752 161.771 46.1367 161.225 46.1367C160.732 46.1367 160.247 46.0729 159.769 45.9453C159.29 45.8132 158.855 45.6149 158.463 45.3506C158.076 45.0863 157.766 44.749 157.533 44.3389C157.301 43.9287 157.185 43.4434 157.185 42.8828H159.242C159.242 43.1927 159.29 43.4548 159.386 43.6689C159.481 43.8831 159.616 44.0563 159.789 44.1885C159.967 44.3206 160.176 44.4163 160.418 44.4756C160.664 44.5348 160.933 44.5645 161.225 44.5645C161.58 44.5645 161.872 44.5143 162.1 44.4141C162.332 44.3138 162.503 44.1748 162.612 43.9971C162.726 43.8193 162.783 43.6188 162.783 43.3955ZM172.409 36.0469V46H170.365V36.0469H172.409ZM186.219 40.7979V44.7422C186.064 44.929 185.825 45.1318 185.501 45.3506C185.177 45.5648 184.76 45.7493 184.25 45.9043C183.74 46.0592 183.122 46.1367 182.397 46.1367C181.755 46.1367 181.169 46.0319 180.641 45.8223C180.112 45.6081 179.656 45.2959 179.273 44.8857C178.895 44.4756 178.604 43.9743 178.398 43.3818C178.193 42.7848 178.091 42.1035 178.091 41.3379V40.7158C178.091 39.9502 178.189 39.2689 178.385 38.6719C178.585 38.0749 178.87 37.5713 179.239 37.1611C179.608 36.751 180.048 36.4388 180.559 36.2246C181.069 36.0104 181.636 35.9033 182.261 35.9033C183.127 35.9033 183.838 36.0446 184.394 36.3271C184.95 36.6051 185.373 36.9925 185.665 37.4893C185.961 37.9814 186.144 38.5465 186.212 39.1846H184.223C184.173 38.8473 184.077 38.5534 183.936 38.3027C183.794 38.0521 183.591 37.8561 183.327 37.7148C183.067 37.5736 182.73 37.5029 182.315 37.5029C181.974 37.5029 181.668 37.5736 181.399 37.7148C181.135 37.8516 180.912 38.0544 180.729 38.3232C180.547 38.5921 180.408 38.9248 180.312 39.3213C180.217 39.7178 180.169 40.1781 180.169 40.7021V41.3379C180.169 41.8574 180.219 42.3177 180.319 42.7188C180.42 43.1152 180.568 43.4502 180.764 43.7236C180.964 43.9925 181.21 44.1953 181.502 44.332C181.794 44.4688 182.133 44.5371 182.521 44.5371C182.844 44.5371 183.113 44.5098 183.327 44.4551C183.546 44.4004 183.721 44.3343 183.854 44.2568C183.99 44.1748 184.095 44.0973 184.168 44.0244V42.2607H182.295V40.7979H186.219ZM199.974 36.0469V46H197.923L193.924 39.3281V46H191.873V36.0469H193.924L197.93 42.7256V36.0469H199.974Z" fill="#3C46FF"/>
<defs>
<clipPath id="clip0_1_587">
<rect width="15" height="15" fill="white" transform="translate(150 115)"/>
</clipPath>
</defs>
</svg>
