<svg width="308" height="164" viewBox="0 0 308 164" fill="none" xmlns="http://www.w3.org/2000/svg">
<g clip-path="url(#clip0_1_600)">
<path d="M161.225 121.357L156.436 116.568L157.698 115.306L164.643 122.25L157.698 129.195L156.436 127.932L161.225 123.143H150.357V121.357H161.225Z" fill="black"/>
</g>
<path d="M38.6162 124.058L42.3867 113.203H44.2236L39.4863 126H38.1768L38.6162 124.058ZM35.0918 113.203L38.8271 124.058L39.293 126H37.9834L33.2549 113.203H35.0918ZM47.4668 116.49V126H45.832V116.49H47.4668ZM45.709 113.968C45.709 113.704 45.7881 113.481 45.9463 113.3C46.1104 113.118 46.3506 113.027 46.667 113.027C46.9775 113.027 47.2148 113.118 47.3789 113.3C47.5488 113.481 47.6338 113.704 47.6338 113.968C47.6338 114.22 47.5488 114.437 47.3789 114.618C47.2148 114.794 46.9775 114.882 46.667 114.882C46.3506 114.882 46.1104 114.794 45.9463 114.618C45.7881 114.437 45.709 114.22 45.709 113.968ZM54.0234 126.176C53.3613 126.176 52.7607 126.064 52.2217 125.842C51.6885 125.613 51.2285 125.294 50.8418 124.884C50.4609 124.474 50.168 123.987 49.9629 123.425C49.7578 122.862 49.6553 122.247 49.6553 121.579V121.21C49.6553 120.437 49.7695 119.748 49.998 119.145C50.2266 118.535 50.5371 118.02 50.9297 117.598C51.3223 117.176 51.7676 116.856 52.2656 116.64C52.7637 116.423 53.2793 116.314 53.8125 116.314C54.4922 116.314 55.0781 116.432 55.5703 116.666C56.0684 116.9 56.4756 117.229 56.792 117.65C57.1084 118.066 57.3428 118.559 57.4951 119.127C57.6475 119.689 57.7236 120.305 57.7236 120.973V121.702H50.6221V120.375H56.0977V120.252C56.0742 119.83 55.9863 119.42 55.834 119.021C55.6875 118.623 55.4531 118.295 55.1309 118.037C54.8086 117.779 54.3691 117.65 53.8125 117.65C53.4434 117.65 53.1035 117.729 52.793 117.888C52.4824 118.04 52.2158 118.269 51.9932 118.573C51.7705 118.878 51.5977 119.25 51.4746 119.689C51.3516 120.129 51.29 120.636 51.29 121.21V121.579C51.29 122.03 51.3516 122.455 51.4746 122.854C51.6035 123.246 51.7881 123.592 52.0283 123.891C52.2744 124.189 52.5703 124.424 52.916 124.594C53.2676 124.764 53.666 124.849 54.1113 124.849C54.6855 124.849 55.1719 124.731 55.5703 124.497C55.9688 124.263 56.3174 123.949 56.6162 123.557L57.6006 124.339C57.3955 124.649 57.1348 124.945 56.8184 125.227C56.502 125.508 56.1123 125.736 55.6494 125.912C55.1924 126.088 54.6504 126.176 54.0234 126.176ZM62.0303 124.312L64.4736 116.49H65.5459L65.335 118.046L62.8477 126H61.8018L62.0303 124.312ZM60.3867 116.49L62.4697 124.4L62.6191 126H61.5205L58.7607 116.49H60.3867ZM67.8838 124.339L69.8701 116.49H71.4873L68.7275 126H67.6377L67.8838 124.339ZM65.7832 116.49L68.1738 124.181L68.4463 126H67.4092L64.8516 118.028L64.6406 116.49H65.7832ZM82.5879 120.981H79.1689V119.602H82.5879C83.25 119.602 83.7861 119.496 84.1963 119.285C84.6064 119.074 84.9053 118.781 85.0928 118.406C85.2861 118.031 85.3828 117.604 85.3828 117.123C85.3828 116.684 85.2861 116.271 85.0928 115.884C84.9053 115.497 84.6064 115.187 84.1963 114.952C83.7861 114.712 83.25 114.592 82.5879 114.592H79.5645V126H77.8682V113.203H82.5879C83.5547 113.203 84.3721 113.37 85.04 113.704C85.708 114.038 86.2148 114.501 86.5605 115.093C86.9062 115.679 87.0791 116.35 87.0791 117.105C87.0791 117.926 86.9062 118.626 86.5605 119.206C86.2148 119.786 85.708 120.229 85.04 120.533C84.3721 120.832 83.5547 120.981 82.5879 120.981ZM90.6035 117.984V126H88.9775V116.49H90.5596L90.6035 117.984ZM93.5742 116.438L93.5654 117.949C93.4307 117.92 93.3018 117.902 93.1787 117.896C93.0615 117.885 92.9268 117.879 92.7744 117.879C92.3994 117.879 92.0684 117.938 91.7812 118.055C91.4941 118.172 91.251 118.336 91.0518 118.547C90.8525 118.758 90.6943 119.01 90.5771 119.303C90.4658 119.59 90.3926 119.906 90.3574 120.252L89.9004 120.516C89.9004 119.941 89.9561 119.402 90.0674 118.898C90.1846 118.395 90.3633 117.949 90.6035 117.562C90.8438 117.17 91.1484 116.865 91.5176 116.648C91.8926 116.426 92.3379 116.314 92.8535 116.314C92.9707 116.314 93.1055 116.329 93.2578 116.358C93.4102 116.382 93.5156 116.408 93.5742 116.438ZM94.4707 121.351V121.148C94.4707 120.463 94.5703 119.827 94.7695 119.241C94.9688 118.649 95.2559 118.137 95.6309 117.703C96.0059 117.264 96.46 116.924 96.9932 116.684C97.5264 116.438 98.124 116.314 98.7861 116.314C99.4541 116.314 100.055 116.438 100.588 116.684C101.127 116.924 101.584 117.264 101.959 117.703C102.34 118.137 102.63 118.649 102.829 119.241C103.028 119.827 103.128 120.463 103.128 121.148V121.351C103.128 122.036 103.028 122.672 102.829 123.258C102.63 123.844 102.34 124.356 101.959 124.796C101.584 125.229 101.13 125.569 100.597 125.815C100.069 126.056 99.4717 126.176 98.8037 126.176C98.1357 126.176 97.5352 126.056 97.002 125.815C96.4688 125.569 96.0117 125.229 95.6309 124.796C95.2559 124.356 94.9688 123.844 94.7695 123.258C94.5703 122.672 94.4707 122.036 94.4707 121.351ZM96.0967 121.148V121.351C96.0967 121.825 96.1523 122.273 96.2637 122.695C96.375 123.111 96.542 123.48 96.7646 123.803C96.9932 124.125 97.2773 124.38 97.6172 124.567C97.957 124.749 98.3525 124.84 98.8037 124.84C99.249 124.84 99.6387 124.749 99.9727 124.567C100.312 124.38 100.594 124.125 100.816 123.803C101.039 123.48 101.206 123.111 101.317 122.695C101.435 122.273 101.493 121.825 101.493 121.351V121.148C101.493 120.68 101.435 120.237 101.317 119.821C101.206 119.399 101.036 119.027 100.808 118.705C100.585 118.377 100.304 118.119 99.9639 117.932C99.6299 117.744 99.2373 117.65 98.7861 117.65C98.3408 117.65 97.9482 117.744 97.6084 117.932C97.2744 118.119 96.9932 118.377 96.7646 118.705C96.542 119.027 96.375 119.399 96.2637 119.821C96.1523 120.237 96.0967 120.68 96.0967 121.148ZM105.211 116.49H106.846V127.134C106.846 127.714 106.752 128.206 106.564 128.61C106.383 129.015 106.107 129.319 105.738 129.524C105.375 129.735 104.915 129.841 104.358 129.841C104.212 129.841 104.042 129.826 103.849 129.797C103.649 129.768 103.482 129.732 103.348 129.691L103.356 128.382C103.468 128.405 103.594 128.423 103.734 128.435C103.875 128.452 103.998 128.461 104.104 128.461C104.344 128.461 104.546 128.417 104.71 128.329C104.874 128.241 104.997 128.101 105.079 127.907C105.167 127.714 105.211 127.456 105.211 127.134V116.49ZM105.044 113.968C105.044 113.704 105.126 113.481 105.29 113.3C105.454 113.118 105.691 113.027 106.002 113.027C106.318 113.027 106.559 113.118 106.723 113.3C106.887 113.481 106.969 113.704 106.969 113.968C106.969 114.22 106.887 114.437 106.723 114.618C106.559 114.794 106.318 114.882 106.002 114.882C105.691 114.882 105.454 114.794 105.29 114.618C105.126 114.437 105.044 114.22 105.044 113.968ZM113.42 126.176C112.758 126.176 112.157 126.064 111.618 125.842C111.085 125.613 110.625 125.294 110.238 124.884C109.857 124.474 109.564 123.987 109.359 123.425C109.154 122.862 109.052 122.247 109.052 121.579V121.21C109.052 120.437 109.166 119.748 109.395 119.145C109.623 118.535 109.934 118.02 110.326 117.598C110.719 117.176 111.164 116.856 111.662 116.64C112.16 116.423 112.676 116.314 113.209 116.314C113.889 116.314 114.475 116.432 114.967 116.666C115.465 116.9 115.872 117.229 116.188 117.65C116.505 118.066 116.739 118.559 116.892 119.127C117.044 119.689 117.12 120.305 117.12 120.973V121.702H110.019V120.375H115.494V120.252C115.471 119.83 115.383 119.42 115.23 119.021C115.084 118.623 114.85 118.295 114.527 118.037C114.205 117.779 113.766 117.65 113.209 117.65C112.84 117.65 112.5 117.729 112.189 117.888C111.879 118.04 111.612 118.269 111.39 118.573C111.167 118.878 110.994 119.25 110.871 119.689C110.748 120.129 110.687 120.636 110.687 121.21V121.579C110.687 122.03 110.748 122.455 110.871 122.854C111 123.246 111.185 123.592 111.425 123.891C111.671 124.189 111.967 124.424 112.312 124.594C112.664 124.764 113.062 124.849 113.508 124.849C114.082 124.849 114.568 124.731 114.967 124.497C115.365 124.263 115.714 123.949 116.013 123.557L116.997 124.339C116.792 124.649 116.531 124.945 116.215 125.227C115.898 125.508 115.509 125.736 115.046 125.912C114.589 126.088 114.047 126.176 113.42 126.176ZM122.824 124.84C123.211 124.84 123.568 124.761 123.896 124.603C124.225 124.444 124.494 124.228 124.705 123.952C124.916 123.671 125.036 123.352 125.065 122.994H126.612C126.583 123.557 126.393 124.081 126.041 124.567C125.695 125.048 125.241 125.438 124.679 125.736C124.116 126.029 123.498 126.176 122.824 126.176C122.109 126.176 121.485 126.05 120.952 125.798C120.425 125.546 119.985 125.2 119.634 124.761C119.288 124.321 119.027 123.817 118.852 123.249C118.682 122.675 118.597 122.068 118.597 121.43V121.061C118.597 120.422 118.682 119.818 118.852 119.25C119.027 118.676 119.288 118.169 119.634 117.729C119.985 117.29 120.425 116.944 120.952 116.692C121.485 116.44 122.109 116.314 122.824 116.314C123.568 116.314 124.219 116.467 124.775 116.771C125.332 117.07 125.769 117.48 126.085 118.002C126.407 118.518 126.583 119.104 126.612 119.76H125.065C125.036 119.367 124.925 119.013 124.731 118.696C124.544 118.38 124.286 118.128 123.958 117.94C123.636 117.747 123.258 117.65 122.824 117.65C122.326 117.65 121.907 117.75 121.567 117.949C121.233 118.143 120.967 118.406 120.768 118.74C120.574 119.068 120.434 119.435 120.346 119.839C120.264 120.237 120.223 120.645 120.223 121.061V121.43C120.223 121.846 120.264 122.256 120.346 122.66C120.428 123.064 120.565 123.431 120.759 123.759C120.958 124.087 121.225 124.351 121.559 124.55C121.898 124.743 122.32 124.84 122.824 124.84ZM132.422 116.49V117.738H127.28V116.49H132.422ZM129.021 114.179H130.646V123.645C130.646 123.967 130.696 124.21 130.796 124.374C130.896 124.538 131.024 124.646 131.183 124.699C131.341 124.752 131.511 124.778 131.692 124.778C131.827 124.778 131.968 124.767 132.114 124.743C132.267 124.714 132.381 124.69 132.457 124.673L132.466 126C132.337 126.041 132.167 126.079 131.956 126.114C131.751 126.155 131.502 126.176 131.209 126.176C130.811 126.176 130.444 126.097 130.11 125.938C129.776 125.78 129.51 125.517 129.311 125.147C129.117 124.772 129.021 124.269 129.021 123.636V114.179Z" fill="black"/>
<path d="M36.2881 44.4209L38.2705 36.0469H39.3779L39.6309 37.4414L37.5186 46H36.3291L36.2881 44.4209ZM35.2695 36.0469L36.9102 44.4209L36.7734 46H35.4473L33.2393 36.0469H35.2695ZM41.374 44.3867L42.9941 36.0469H45.0244L42.8232 46H41.4971L41.374 44.3867ZM40 36.0469L41.9961 44.4551L41.9414 46H40.752L38.626 37.4346L38.8994 36.0469H40ZM56.8174 44.4004V46H51.5195V44.4004H56.8174ZM52.1895 36.0469V46H50.1387V36.0469H52.1895ZM56.127 40.1006V41.6592H51.5195V40.1006H56.127ZM56.8105 36.0469V37.6533H51.5195V36.0469H56.8105ZM65.9102 41.6318H63.3535L63.3398 40.2236H65.4863C65.8646 40.2236 66.1745 40.1758 66.416 40.0801C66.6576 39.9798 66.8376 39.8363 66.9561 39.6494C67.0791 39.458 67.1406 39.2256 67.1406 38.9521C67.1406 38.6423 67.0814 38.3916 66.9629 38.2002C66.849 38.0088 66.6689 37.8698 66.4229 37.7832C66.1813 37.6966 65.8691 37.6533 65.4863 37.6533H64.0645V46H62.0137V36.0469H65.4863C66.0651 36.0469 66.5824 36.1016 67.0381 36.2109C67.4984 36.3203 67.888 36.4867 68.207 36.71C68.526 36.9333 68.7699 37.2158 68.9385 37.5576C69.1071 37.8949 69.1914 38.2959 69.1914 38.7607C69.1914 39.1709 69.098 39.5492 68.9111 39.8955C68.7288 40.2419 68.4395 40.5244 68.043 40.7432C67.651 40.9619 67.1383 41.0827 66.5049 41.1055L65.9102 41.6318ZM65.8213 46H62.793L63.5928 44.4004H65.8213C66.1813 44.4004 66.4753 44.3434 66.7031 44.2295C66.931 44.111 67.0996 43.9515 67.209 43.751C67.3184 43.5505 67.373 43.3203 67.373 43.0605C67.373 42.7689 67.3229 42.516 67.2227 42.3018C67.127 42.0876 66.972 41.9235 66.7578 41.8096C66.5436 41.6911 66.2611 41.6318 65.9102 41.6318H63.9346L63.9482 40.2236H66.4092L66.8809 40.7773C67.487 40.7682 67.9746 40.8753 68.3438 41.0986C68.7174 41.3174 68.9886 41.6022 69.1572 41.9531C69.3304 42.304 69.417 42.68 69.417 43.0811C69.417 43.7191 69.278 44.2568 69 44.6943C68.722 45.1273 68.3141 45.4531 67.7764 45.6719C67.2432 45.8906 66.5915 46 65.8213 46ZM85.4971 46H83.3301L83.3438 44.4004H85.4971C86.0348 44.4004 86.4883 44.2796 86.8574 44.0381C87.2266 43.792 87.5046 43.4342 87.6914 42.9648C87.8828 42.4954 87.9785 41.9281 87.9785 41.2627V40.7773C87.9785 40.2669 87.9238 39.818 87.8145 39.4307C87.7096 39.0433 87.5524 38.7174 87.3428 38.4531C87.1331 38.1888 86.8757 37.9906 86.5703 37.8584C86.265 37.7217 85.9141 37.6533 85.5176 37.6533H83.2891V36.0469H85.5176C86.1829 36.0469 86.7913 36.1608 87.3428 36.3887C87.8988 36.612 88.3796 36.9333 88.7852 37.3525C89.1908 37.7718 89.5029 38.2731 89.7217 38.8564C89.945 39.4352 90.0566 40.0801 90.0566 40.791V41.2627C90.0566 41.9691 89.945 42.6139 89.7217 43.1973C89.5029 43.7806 89.1908 44.2819 88.7852 44.7012C88.3841 45.1159 87.9033 45.4372 87.3428 45.665C86.7868 45.8883 86.1715 46 85.4971 46ZM84.4922 36.0469V46H82.4414V36.0469H84.4922ZM102.226 44.4004V46H96.9277V44.4004H102.226ZM97.5977 36.0469V46H95.5469V36.0469H97.5977ZM101.535 40.1006V41.6592H96.9277V40.1006H101.535ZM102.219 36.0469V37.6533H96.9277V36.0469H102.219ZM112.604 43.3955C112.604 43.2178 112.576 43.0583 112.521 42.917C112.471 42.7712 112.376 42.639 112.234 42.5205C112.093 42.3975 111.895 42.2767 111.64 42.1582C111.384 42.0397 111.054 41.9167 110.648 41.7891C110.197 41.6432 109.769 41.4792 109.363 41.2969C108.962 41.1146 108.607 40.9027 108.297 40.6611C107.992 40.415 107.75 40.1302 107.572 39.8066C107.399 39.4831 107.312 39.1071 107.312 38.6787C107.312 38.264 107.404 37.888 107.586 37.5508C107.768 37.209 108.023 36.9173 108.352 36.6758C108.68 36.4297 109.067 36.2406 109.514 36.1084C109.965 35.9762 110.459 35.9102 110.997 35.9102C111.731 35.9102 112.371 36.0423 112.918 36.3066C113.465 36.571 113.889 36.9333 114.189 37.3936C114.495 37.8538 114.647 38.3802 114.647 38.9727H112.61C112.61 38.681 112.549 38.4258 112.426 38.207C112.307 37.9837 112.125 37.8083 111.879 37.6807C111.637 37.5531 111.332 37.4893 110.963 37.4893C110.607 37.4893 110.311 37.5439 110.074 37.6533C109.837 37.7581 109.66 37.9017 109.541 38.084C109.423 38.2617 109.363 38.4622 109.363 38.6855C109.363 38.8542 109.404 39.0068 109.486 39.1436C109.573 39.2803 109.701 39.4079 109.869 39.5264C110.038 39.6449 110.245 39.7565 110.491 39.8613C110.737 39.9661 111.022 40.0687 111.346 40.1689C111.888 40.333 112.364 40.5176 112.774 40.7227C113.189 40.9277 113.535 41.1579 113.813 41.4131C114.091 41.6683 114.301 41.9577 114.442 42.2812C114.584 42.6048 114.654 42.9717 114.654 43.3818C114.654 43.8148 114.57 44.2021 114.401 44.5439C114.233 44.8857 113.989 45.1751 113.67 45.4121C113.351 45.6491 112.97 45.8291 112.528 45.9521C112.086 46.0752 111.592 46.1367 111.045 46.1367C110.553 46.1367 110.067 46.0729 109.589 45.9453C109.11 45.8132 108.675 45.6149 108.283 45.3506C107.896 45.0863 107.586 44.749 107.354 44.3389C107.121 43.9287 107.005 43.4434 107.005 42.8828H109.062C109.062 43.1927 109.11 43.4548 109.206 43.6689C109.302 43.8831 109.436 44.0563 109.609 44.1885C109.787 44.3206 109.997 44.4163 110.238 44.4756C110.484 44.5348 110.753 44.5645 111.045 44.5645C111.4 44.5645 111.692 44.5143 111.92 44.4141C112.152 44.3138 112.323 44.1748 112.433 43.9971C112.547 43.8193 112.604 43.6188 112.604 43.3955ZM122.229 36.0469V46H120.186V36.0469H122.229ZM136.039 40.7979V44.7422C135.884 44.929 135.645 45.1318 135.321 45.3506C134.998 45.5648 134.581 45.7493 134.07 45.9043C133.56 46.0592 132.942 46.1367 132.218 46.1367C131.575 46.1367 130.99 46.0319 130.461 45.8223C129.932 45.6081 129.477 45.2959 129.094 44.8857C128.715 44.4756 128.424 43.9743 128.219 43.3818C128.014 42.7848 127.911 42.1035 127.911 41.3379V40.7158C127.911 39.9502 128.009 39.2689 128.205 38.6719C128.406 38.0749 128.69 37.5713 129.06 37.1611C129.429 36.751 129.868 36.4388 130.379 36.2246C130.889 36.0104 131.457 35.9033 132.081 35.9033C132.947 35.9033 133.658 36.0446 134.214 36.3271C134.77 36.6051 135.194 36.9925 135.485 37.4893C135.782 37.9814 135.964 38.5465 136.032 39.1846H134.043C133.993 38.8473 133.897 38.5534 133.756 38.3027C133.615 38.0521 133.412 37.8561 133.147 37.7148C132.888 37.5736 132.55 37.5029 132.136 37.5029C131.794 37.5029 131.489 37.5736 131.22 37.7148C130.955 37.8516 130.732 38.0544 130.55 38.3232C130.368 38.5921 130.229 38.9248 130.133 39.3213C130.037 39.7178 129.989 40.1781 129.989 40.7021V41.3379C129.989 41.8574 130.039 42.3177 130.14 42.7188C130.24 43.1152 130.388 43.4502 130.584 43.7236C130.785 43.9925 131.031 44.1953 131.322 44.332C131.614 44.4688 131.953 44.5371 132.341 44.5371C132.664 44.5371 132.933 44.5098 133.147 44.4551C133.366 44.4004 133.542 44.3343 133.674 44.2568C133.811 44.1748 133.915 44.0973 133.988 44.0244V42.2607H132.115V40.7979H136.039ZM149.794 36.0469V46H147.743L143.744 39.3281V46H141.693V36.0469H143.744L147.75 42.7256V36.0469H149.794Z" fill="#3C46FF"/>
<path d="M36.1289 68.9375H39.1055L43.4883 81.4648L47.8711 68.9375H50.8477L44.6836 86H42.293L36.1289 68.9375ZM34.5234 68.9375H37.4883L38.0273 81.1484V86H34.5234V68.9375ZM49.4883 68.9375H52.4648V86H48.9492V81.1484L49.4883 68.9375ZM62.1797 83.1406V77.4922C62.1797 77.0859 62.1133 76.7383 61.9805 76.4492C61.8477 76.1523 61.6406 75.9219 61.3594 75.7578C61.0859 75.5938 60.7305 75.5117 60.293 75.5117C59.918 75.5117 59.5938 75.5781 59.3203 75.7109C59.0469 75.8359 58.8359 76.0195 58.6875 76.2617C58.5391 76.4961 58.4648 76.7734 58.4648 77.0938H55.0898C55.0898 76.5547 55.2148 76.043 55.4648 75.5586C55.7148 75.0742 56.0781 74.6484 56.5547 74.2812C57.0312 73.9062 57.5977 73.6133 58.2539 73.4023C58.918 73.1914 59.6602 73.0859 60.4805 73.0859C61.4648 73.0859 62.3398 73.25 63.1055 73.5781C63.8711 73.9062 64.4727 74.3984 64.9102 75.0547C65.3555 75.7109 65.5781 76.5312 65.5781 77.5156V82.9414C65.5781 83.6367 65.6211 84.207 65.707 84.6523C65.793 85.0898 65.918 85.4727 66.082 85.8008V86H62.6719C62.5078 85.6562 62.3828 85.2266 62.2969 84.7109C62.2188 84.1875 62.1797 83.6641 62.1797 83.1406ZM62.625 78.2773L62.6484 80.1875H60.7617C60.3164 80.1875 59.9297 80.2383 59.6016 80.3398C59.2734 80.4414 59.0039 80.5859 58.793 80.7734C58.582 80.9531 58.4258 81.1641 58.3242 81.4062C58.2305 81.6484 58.1836 81.9141 58.1836 82.2031C58.1836 82.4922 58.25 82.7539 58.3828 82.9883C58.5156 83.2148 58.707 83.3945 58.957 83.5273C59.207 83.6523 59.5 83.7148 59.8359 83.7148C60.3438 83.7148 60.7852 83.6133 61.1602 83.4102C61.5352 83.207 61.8242 82.957 62.0273 82.6602C62.2383 82.3633 62.3477 82.082 62.3555 81.8164L63.2461 83.2461C63.1211 83.5664 62.9492 83.8984 62.7305 84.2422C62.5195 84.5859 62.25 84.9102 61.9219 85.2148C61.5938 85.5117 61.1992 85.7578 60.7383 85.9531C60.2773 86.1406 59.7305 86.2344 59.0977 86.2344C58.293 86.2344 57.5625 86.0742 56.9062 85.7539C56.2578 85.4258 55.7422 84.9766 55.3594 84.4062C54.9844 83.8281 54.7969 83.1719 54.7969 82.4375C54.7969 81.7734 54.9219 81.1836 55.1719 80.668C55.4219 80.1523 55.7891 79.7188 56.2734 79.3672C56.7656 79.0078 57.3789 78.7383 58.1133 78.5586C58.8477 78.3711 59.6992 78.2773 60.668 78.2773H62.625ZM71.7422 73.3203V86H68.3555V73.3203H71.7422ZM68.1445 70.0156C68.1445 69.5234 68.3164 69.1172 68.6602 68.7969C69.0039 68.4766 69.4648 68.3164 70.043 68.3164C70.6133 68.3164 71.0703 68.4766 71.4141 68.7969C71.7656 69.1172 71.9414 69.5234 71.9414 70.0156C71.9414 70.5078 71.7656 70.9141 71.4141 71.2344C71.0703 71.5547 70.6133 71.7148 70.043 71.7148C69.4648 71.7148 69.0039 71.5547 68.6602 71.2344C68.3164 70.9141 68.1445 70.5078 68.1445 70.0156ZM84.6211 83.3633V86H74.9883V83.3633H84.6211ZM84.4336 75.2656L76.3477 86H74.0859V83.9961L82.1367 73.3203H84.4336V75.2656ZM83.2383 73.3203V75.9688H74.2734V73.3203H83.2383ZM92.3906 86.2344C91.4062 86.2344 90.5234 86.0781 89.7422 85.7656C88.9609 85.4453 88.2969 85.0039 87.75 84.4414C87.2109 83.8789 86.7969 83.2266 86.5078 82.4844C86.2188 81.7344 86.0742 80.9375 86.0742 80.0938V79.625C86.0742 78.6641 86.2109 77.7852 86.4844 76.9883C86.7578 76.1914 87.1484 75.5 87.6562 74.9141C88.1719 74.3281 88.7969 73.8789 89.5312 73.5664C90.2656 73.2461 91.0938 73.0859 92.0156 73.0859C92.9141 73.0859 93.7109 73.2344 94.4062 73.5312C95.1016 73.8281 95.6836 74.25 96.1523 74.7969C96.6289 75.3438 96.9883 76 97.2305 76.7656C97.4727 77.5234 97.5938 78.3672 97.5938 79.2969V80.7031H87.5156V78.4531H94.2773V78.1953C94.2773 77.7266 94.1914 77.3086 94.0195 76.9414C93.8555 76.5664 93.6055 76.2695 93.2695 76.0508C92.9336 75.832 92.5039 75.7227 91.9805 75.7227C91.5352 75.7227 91.1523 75.8203 90.832 76.0156C90.5117 76.2109 90.25 76.4844 90.0469 76.8359C89.8516 77.1875 89.7031 77.6016 89.6016 78.0781C89.5078 78.5469 89.4609 79.0625 89.4609 79.625V80.0938C89.4609 80.6016 89.5312 81.0703 89.6719 81.5C89.8203 81.9297 90.0273 82.3008 90.293 82.6133C90.5664 82.9258 90.8945 83.168 91.2773 83.3398C91.668 83.5117 92.1094 83.5977 92.6016 83.5977C93.2109 83.5977 93.7773 83.4805 94.3008 83.2461C94.832 83.0039 95.2891 82.6406 95.6719 82.1562L97.3125 83.9375C97.0469 84.3203 96.6836 84.6875 96.2227 85.0391C95.7695 85.3906 95.2227 85.6797 94.582 85.9062C93.9414 86.125 93.2109 86.2344 92.3906 86.2344ZM109.816 83.293L113.215 68.9375H115.113L115.547 71.3281L111.926 86H109.887L109.816 83.293ZM108.07 68.9375L110.883 83.293L110.648 86H108.375L104.59 68.9375H108.07ZM118.535 83.2344L121.312 68.9375H124.793L121.02 86H118.746L118.535 83.2344ZM116.18 68.9375L119.602 83.3516L119.508 86H117.469L113.824 71.3164L114.293 68.9375H116.18ZM131.953 86.2344C130.969 86.2344 130.086 86.0781 129.305 85.7656C128.523 85.4453 127.859 85.0039 127.312 84.4414C126.773 83.8789 126.359 83.2266 126.07 82.4844C125.781 81.7344 125.637 80.9375 125.637 80.0938V79.625C125.637 78.6641 125.773 77.7852 126.047 76.9883C126.32 76.1914 126.711 75.5 127.219 74.9141C127.734 74.3281 128.359 73.8789 129.094 73.5664C129.828 73.2461 130.656 73.0859 131.578 73.0859C132.477 73.0859 133.273 73.2344 133.969 73.5312C134.664 73.8281 135.246 74.25 135.715 74.7969C136.191 75.3438 136.551 76 136.793 76.7656C137.035 77.5234 137.156 78.3672 137.156 79.2969V80.7031H127.078V78.4531H133.84V78.1953C133.84 77.7266 133.754 77.3086 133.582 76.9414C133.418 76.5664 133.168 76.2695 132.832 76.0508C132.496 75.832 132.066 75.7227 131.543 75.7227C131.098 75.7227 130.715 75.8203 130.395 76.0156C130.074 76.2109 129.812 76.4844 129.609 76.8359C129.414 77.1875 129.266 77.6016 129.164 78.0781C129.07 78.5469 129.023 79.0625 129.023 79.625V80.0938C129.023 80.6016 129.094 81.0703 129.234 81.5C129.383 81.9297 129.59 82.3008 129.855 82.6133C130.129 82.9258 130.457 83.168 130.84 83.3398C131.23 83.5117 131.672 83.5977 132.164 83.5977C132.773 83.5977 133.34 83.4805 133.863 83.2461C134.395 83.0039 134.852 82.6406 135.234 82.1562L136.875 83.9375C136.609 84.3203 136.246 84.6875 135.785 85.0391C135.332 85.3906 134.785 85.6797 134.145 85.9062C133.504 86.125 132.773 86.2344 131.953 86.2344ZM139.078 68H142.453V83.0938L142.113 86H139.078V68ZM150.48 79.5312V79.7773C150.48 80.7227 150.379 81.5898 150.176 82.3789C149.98 83.168 149.676 83.8516 149.262 84.4297C148.848 85 148.332 85.4453 147.715 85.7656C147.105 86.0781 146.387 86.2344 145.559 86.2344C144.785 86.2344 144.113 86.0781 143.543 85.7656C142.98 85.4531 142.508 85.0117 142.125 84.4414C141.742 83.8711 141.434 83.2031 141.199 82.4375C140.965 81.6719 140.789 80.8359 140.672 79.9297V79.3906C140.789 78.4844 140.965 77.6484 141.199 76.8828C141.434 76.1172 141.742 75.4492 142.125 74.8789C142.508 74.3086 142.98 73.8672 143.543 73.5547C144.105 73.2422 144.77 73.0859 145.535 73.0859C146.371 73.0859 147.098 73.2461 147.715 73.5664C148.34 73.8789 148.855 74.3242 149.262 74.9023C149.676 75.4727 149.98 76.1523 150.176 76.9414C150.379 77.7227 150.48 78.5859 150.48 79.5312ZM147.105 79.7773V79.5312C147.105 79.0156 147.066 78.5312 146.988 78.0781C146.918 77.6172 146.793 77.2148 146.613 76.8711C146.434 76.5195 146.188 76.2422 145.875 76.0391C145.57 75.8359 145.176 75.7344 144.691 75.7344C144.23 75.7344 143.84 75.8125 143.52 75.9688C143.199 76.125 142.934 76.3438 142.723 76.625C142.52 76.9062 142.367 77.2422 142.266 77.6328C142.164 78.0156 142.102 78.4375 142.078 78.8984V80.4336C142.102 81.0508 142.203 81.5977 142.383 82.0742C142.57 82.543 142.852 82.9141 143.227 83.1875C143.609 83.4531 144.105 83.5859 144.715 83.5859C145.191 83.5859 145.586 83.4922 145.898 83.3047C146.211 83.1172 146.453 82.8516 146.625 82.5078C146.805 82.1641 146.93 81.7617 147 81.3008C147.07 80.832 147.105 80.3242 147.105 79.7773ZM159.434 82.4961C159.434 82.2539 159.363 82.0352 159.223 81.8398C159.082 81.6445 158.82 81.4648 158.438 81.3008C158.062 81.1289 157.52 80.9727 156.809 80.832C156.168 80.6914 155.57 80.5156 155.016 80.3047C154.469 80.0859 153.992 79.8242 153.586 79.5195C153.188 79.2148 152.875 78.8555 152.648 78.4414C152.422 78.0195 152.309 77.5391 152.309 77C152.309 76.4688 152.422 75.9688 152.648 75.5C152.883 75.0312 153.215 74.6172 153.645 74.2578C154.082 73.8906 154.613 73.6055 155.238 73.4023C155.871 73.1914 156.582 73.0859 157.371 73.0859C158.473 73.0859 159.418 73.2617 160.207 73.6133C161.004 73.9648 161.613 74.4492 162.035 75.0664C162.465 75.6758 162.68 76.3711 162.68 77.1523H159.305C159.305 76.8242 159.234 76.5312 159.094 76.2734C158.961 76.0078 158.75 75.8008 158.461 75.6523C158.18 75.4961 157.812 75.418 157.359 75.418C156.984 75.418 156.66 75.4844 156.387 75.6172C156.113 75.7422 155.902 75.9141 155.754 76.1328C155.613 76.3438 155.543 76.5781 155.543 76.8359C155.543 77.0312 155.582 77.207 155.66 77.3633C155.746 77.5117 155.883 77.6484 156.07 77.7734C156.258 77.8984 156.5 78.0156 156.797 78.125C157.102 78.2266 157.477 78.3203 157.922 78.4062C158.836 78.5938 159.652 78.8398 160.371 79.1445C161.09 79.4414 161.66 79.8477 162.082 80.3633C162.504 80.8711 162.715 81.5391 162.715 82.3672C162.715 82.9297 162.59 83.4453 162.34 83.9141C162.09 84.3828 161.73 84.793 161.262 85.1445C160.793 85.4883 160.23 85.7578 159.574 85.9531C158.926 86.1406 158.195 86.2344 157.383 86.2344C156.203 86.2344 155.203 86.0234 154.383 85.6016C153.57 85.1797 152.953 84.6445 152.531 83.9961C152.117 83.3398 151.91 82.668 151.91 81.9805H155.109C155.125 82.4414 155.242 82.8125 155.461 83.0938C155.688 83.375 155.973 83.5781 156.316 83.7031C156.668 83.8281 157.047 83.8906 157.453 83.8906C157.891 83.8906 158.254 83.832 158.543 83.7148C158.832 83.5898 159.051 83.4258 159.199 83.2227C159.355 83.0117 159.434 82.7695 159.434 82.4961ZM168.469 73.3203V86H165.082V73.3203H168.469ZM164.871 70.0156C164.871 69.5234 165.043 69.1172 165.387 68.7969C165.73 68.4766 166.191 68.3164 166.77 68.3164C167.34 68.3164 167.797 68.4766 168.141 68.7969C168.492 69.1172 168.668 69.5234 168.668 70.0156C168.668 70.5078 168.492 70.9141 168.141 71.2344C167.797 71.5547 167.34 71.7148 166.77 71.7148C166.191 71.7148 165.73 71.5547 165.387 71.2344C165.043 70.9141 164.871 70.5078 164.871 70.0156ZM177.469 73.3203V75.7109H170.086V73.3203H177.469ZM171.914 70.1914H175.289V82.1797C175.289 82.5469 175.336 82.8281 175.43 83.0234C175.531 83.2188 175.68 83.3555 175.875 83.4336C176.07 83.5039 176.316 83.5391 176.613 83.5391C176.824 83.5391 177.012 83.5312 177.176 83.5156C177.348 83.4922 177.492 83.4688 177.609 83.4453L177.621 85.9297C177.332 86.0234 177.02 86.0977 176.684 86.1523C176.348 86.207 175.977 86.2344 175.57 86.2344C174.828 86.2344 174.18 86.1133 173.625 85.8711C173.078 85.6211 172.656 85.2227 172.359 84.6758C172.062 84.1289 171.914 83.4102 171.914 82.5195V70.1914ZM185.227 86.2344C184.242 86.2344 183.359 86.0781 182.578 85.7656C181.797 85.4453 181.133 85.0039 180.586 84.4414C180.047 83.8789 179.633 83.2266 179.344 82.4844C179.055 81.7344 178.91 80.9375 178.91 80.0938V79.625C178.91 78.6641 179.047 77.7852 179.32 76.9883C179.594 76.1914 179.984 75.5 180.492 74.9141C181.008 74.3281 181.633 73.8789 182.367 73.5664C183.102 73.2461 183.93 73.0859 184.852 73.0859C185.75 73.0859 186.547 73.2344 187.242 73.5312C187.938 73.8281 188.52 74.25 188.988 74.7969C189.465 75.3438 189.824 76 190.066 76.7656C190.309 77.5234 190.43 78.3672 190.43 79.2969V80.7031H180.352V78.4531H187.113V78.1953C187.113 77.7266 187.027 77.3086 186.855 76.9414C186.691 76.5664 186.441 76.2695 186.105 76.0508C185.77 75.832 185.34 75.7227 184.816 75.7227C184.371 75.7227 183.988 75.8203 183.668 76.0156C183.348 76.2109 183.086 76.4844 182.883 76.8359C182.688 77.1875 182.539 77.6016 182.438 78.0781C182.344 78.5469 182.297 79.0625 182.297 79.625V80.0938C182.297 80.6016 182.367 81.0703 182.508 81.5C182.656 81.9297 182.863 82.3008 183.129 82.6133C183.402 82.9258 183.73 83.168 184.113 83.3398C184.504 83.5117 184.945 83.5977 185.438 83.5977C186.047 83.5977 186.613 83.4805 187.137 83.2461C187.668 83.0039 188.125 82.6406 188.508 82.1562L190.148 83.9375C189.883 84.3203 189.52 84.6875 189.059 85.0391C188.605 85.3906 188.059 85.6797 187.418 85.9062C186.777 86.125 186.047 86.2344 185.227 86.2344ZM203.777 86H200.062L200.086 83.2578H203.777C204.699 83.2578 205.477 83.0508 206.109 82.6367C206.742 82.2148 207.219 81.6016 207.539 80.7969C207.867 79.9922 208.031 79.0195 208.031 77.8789V77.0469C208.031 76.1719 207.938 75.4023 207.75 74.7383C207.57 74.0742 207.301 73.5156 206.941 73.0625C206.582 72.6094 206.141 72.2695 205.617 72.043C205.094 71.8086 204.492 71.6914 203.812 71.6914H199.992V68.9375H203.812C204.953 68.9375 205.996 69.1328 206.941 69.5234C207.895 69.9062 208.719 70.457 209.414 71.1758C210.109 71.8945 210.645 72.7539 211.02 73.7539C211.402 74.7461 211.594 75.8516 211.594 77.0703V77.8789C211.594 79.0898 211.402 80.1953 211.02 81.1953C210.645 82.1953 210.109 83.0547 209.414 83.7734C208.727 84.4844 207.902 85.0352 206.941 85.4258C205.988 85.8086 204.934 86 203.777 86ZM202.055 68.9375V86H198.539V68.9375H202.055ZM219.773 86.2344C218.789 86.2344 217.906 86.0781 217.125 85.7656C216.344 85.4453 215.68 85.0039 215.133 84.4414C214.594 83.8789 214.18 83.2266 213.891 82.4844C213.602 81.7344 213.457 80.9375 213.457 80.0938V79.625C213.457 78.6641 213.594 77.7852 213.867 76.9883C214.141 76.1914 214.531 75.5 215.039 74.9141C215.555 74.3281 216.18 73.8789 216.914 73.5664C217.648 73.2461 218.477 73.0859 219.398 73.0859C220.297 73.0859 221.094 73.2344 221.789 73.5312C222.484 73.8281 223.066 74.25 223.535 74.7969C224.012 75.3438 224.371 76 224.613 76.7656C224.855 77.5234 224.977 78.3672 224.977 79.2969V80.7031H214.898V78.4531H221.66V78.1953C221.66 77.7266 221.574 77.3086 221.402 76.9414C221.238 76.5664 220.988 76.2695 220.652 76.0508C220.316 75.832 219.887 75.7227 219.363 75.7227C218.918 75.7227 218.535 75.8203 218.215 76.0156C217.895 76.2109 217.633 76.4844 217.43 76.8359C217.234 77.1875 217.086 77.6016 216.984 78.0781C216.891 78.5469 216.844 79.0625 216.844 79.625V80.0938C216.844 80.6016 216.914 81.0703 217.055 81.5C217.203 81.9297 217.41 82.3008 217.676 82.6133C217.949 82.9258 218.277 83.168 218.66 83.3398C219.051 83.5117 219.492 83.5977 219.984 83.5977C220.594 83.5977 221.16 83.4805 221.684 83.2461C222.215 83.0039 222.672 82.6406 223.055 82.1562L224.695 83.9375C224.43 84.3203 224.066 84.6875 223.605 85.0391C223.152 85.3906 222.605 85.6797 221.965 85.9062C221.324 86.125 220.594 86.2344 219.773 86.2344ZM233.754 82.4961C233.754 82.2539 233.684 82.0352 233.543 81.8398C233.402 81.6445 233.141 81.4648 232.758 81.3008C232.383 81.1289 231.84 80.9727 231.129 80.832C230.488 80.6914 229.891 80.5156 229.336 80.3047C228.789 80.0859 228.312 79.8242 227.906 79.5195C227.508 79.2148 227.195 78.8555 226.969 78.4414C226.742 78.0195 226.629 77.5391 226.629 77C226.629 76.4688 226.742 75.9688 226.969 75.5C227.203 75.0312 227.535 74.6172 227.965 74.2578C228.402 73.8906 228.934 73.6055 229.559 73.4023C230.191 73.1914 230.902 73.0859 231.691 73.0859C232.793 73.0859 233.738 73.2617 234.527 73.6133C235.324 73.9648 235.934 74.4492 236.355 75.0664C236.785 75.6758 237 76.3711 237 77.1523H233.625C233.625 76.8242 233.555 76.5312 233.414 76.2734C233.281 76.0078 233.07 75.8008 232.781 75.6523C232.5 75.4961 232.133 75.418 231.68 75.418C231.305 75.418 230.98 75.4844 230.707 75.6172C230.434 75.7422 230.223 75.9141 230.074 76.1328C229.934 76.3438 229.863 76.5781 229.863 76.8359C229.863 77.0312 229.902 77.207 229.98 77.3633C230.066 77.5117 230.203 77.6484 230.391 77.7734C230.578 77.8984 230.82 78.0156 231.117 78.125C231.422 78.2266 231.797 78.3203 232.242 78.4062C233.156 78.5938 233.973 78.8398 234.691 79.1445C235.41 79.4414 235.98 79.8477 236.402 80.3633C236.824 80.8711 237.035 81.5391 237.035 82.3672C237.035 82.9297 236.91 83.4453 236.66 83.9141C236.41 84.3828 236.051 84.793 235.582 85.1445C235.113 85.4883 234.551 85.7578 233.895 85.9531C233.246 86.1406 232.516 86.2344 231.703 86.2344C230.523 86.2344 229.523 86.0234 228.703 85.6016C227.891 85.1797 227.273 84.6445 226.852 83.9961C226.438 83.3398 226.23 82.668 226.23 81.9805H229.43C229.445 82.4414 229.562 82.8125 229.781 83.0938C230.008 83.375 230.293 83.5781 230.637 83.7031C230.988 83.8281 231.367 83.8906 231.773 83.8906C232.211 83.8906 232.574 83.832 232.863 83.7148C233.152 83.5898 233.371 83.4258 233.52 83.2227C233.676 83.0117 233.754 82.7695 233.754 82.4961ZM242.789 73.3203V86H239.402V73.3203H242.789ZM239.191 70.0156C239.191 69.5234 239.363 69.1172 239.707 68.7969C240.051 68.4766 240.512 68.3164 241.09 68.3164C241.66 68.3164 242.117 68.4766 242.461 68.7969C242.812 69.1172 242.988 69.5234 242.988 70.0156C242.988 70.5078 242.812 70.9141 242.461 71.2344C242.117 71.5547 241.66 71.7148 241.09 71.7148C240.512 71.7148 240.051 71.5547 239.707 71.2344C239.363 70.9141 239.191 70.5078 239.191 70.0156ZM253.605 73.3203H256.664V85.5781C256.664 86.7344 256.406 87.7148 255.891 88.5195C255.383 89.332 254.672 89.9453 253.758 90.3594C252.844 90.7812 251.781 90.9922 250.57 90.9922C250.039 90.9922 249.477 90.9219 248.883 90.7812C248.297 90.6406 247.734 90.4219 247.195 90.125C246.664 89.8281 246.219 89.4531 245.859 89L247.348 87.0078C247.738 87.4609 248.191 87.8125 248.707 88.0625C249.223 88.3203 249.793 88.4492 250.418 88.4492C251.027 88.4492 251.543 88.3359 251.965 88.1094C252.387 87.8906 252.711 87.5664 252.938 87.1367C253.164 86.7148 253.277 86.2031 253.277 85.6016V76.25L253.605 73.3203ZM245.074 79.8125V79.5664C245.074 78.5977 245.191 77.7188 245.426 76.9297C245.668 76.1328 246.008 75.4492 246.445 74.8789C246.891 74.3086 247.43 73.8672 248.062 73.5547C248.695 73.2422 249.41 73.0859 250.207 73.0859C251.051 73.0859 251.758 73.2422 252.328 73.5547C252.898 73.8672 253.367 74.3125 253.734 74.8906C254.102 75.4609 254.387 76.1367 254.59 76.918C254.801 77.6914 254.965 78.5391 255.082 79.4609V80C254.965 80.8828 254.789 81.7031 254.555 82.4609C254.32 83.2188 254.012 83.8828 253.629 84.4531C253.246 85.0156 252.77 85.4531 252.199 85.7656C251.637 86.0781 250.965 86.2344 250.184 86.2344C249.402 86.2344 248.695 86.0742 248.062 85.7539C247.438 85.4336 246.902 84.9844 246.457 84.4062C246.012 83.8281 245.668 83.1484 245.426 82.3672C245.191 81.5859 245.074 80.7344 245.074 79.8125ZM248.449 79.5664V79.8125C248.449 80.3359 248.5 80.8242 248.602 81.2773C248.703 81.7305 248.859 82.1328 249.07 82.4844C249.289 82.8281 249.559 83.0977 249.879 83.293C250.207 83.4805 250.594 83.5742 251.039 83.5742C251.656 83.5742 252.16 83.4453 252.551 83.1875C252.941 82.9219 253.234 82.5586 253.43 82.0977C253.625 81.6367 253.738 81.1055 253.77 80.5039V78.9688C253.754 78.4766 253.688 78.0352 253.57 77.6445C253.453 77.2461 253.289 76.9062 253.078 76.625C252.867 76.3438 252.594 76.125 252.258 75.9688C251.922 75.8125 251.523 75.7344 251.062 75.7344C250.617 75.7344 250.23 75.8359 249.902 76.0391C249.582 76.2344 249.312 76.5039 249.094 76.8477C248.883 77.1914 248.723 77.5977 248.613 78.0664C248.504 78.5273 248.449 79.0273 248.449 79.5664ZM262.594 76.0273V86H259.219V73.3203H262.383L262.594 76.0273ZM262.102 79.2148H261.188C261.188 78.2773 261.309 77.4336 261.551 76.6836C261.793 75.9258 262.133 75.2812 262.57 74.75C263.008 74.2109 263.527 73.8008 264.129 73.5195C264.738 73.2305 265.418 73.0859 266.168 73.0859C266.762 73.0859 267.305 73.1719 267.797 73.3438C268.289 73.5156 268.711 73.7891 269.062 74.1641C269.422 74.5391 269.695 75.0352 269.883 75.6523C270.078 76.2695 270.176 77.0234 270.176 77.9141V86H266.777V77.9023C266.777 77.3398 266.699 76.9023 266.543 76.5898C266.387 76.2773 266.156 76.0586 265.852 75.9336C265.555 75.8008 265.188 75.7344 264.75 75.7344C264.297 75.7344 263.902 75.8242 263.566 76.0039C263.238 76.1836 262.965 76.4336 262.746 76.7539C262.535 77.0664 262.375 77.4336 262.266 77.8555C262.156 78.2773 262.102 78.7305 262.102 79.2148Z" fill="black"/>
<defs>
<clipPath id="clip0_1_600">
<rect width="15" height="15" fill="white" transform="translate(150 115)"/>
</clipPath>
</defs>
</svg>
